<svg id="Art" xmlns="http://www.w3.org/2000/svg" xmlns:xlink="http://www.w3.org/1999/xlink" viewBox="0 0 451.01 327.8"><defs><style>.cls-1{fill:url(#linear-gradient);}.cls-2{fill:url(#linear-gradient-2);}.cls-3{fill:url(#linear-gradient-3);}.cls-4{fill:url(#linear-gradient-4);}.cls-5{fill:url(#linear-gradient-5);}.cls-6{fill:url(#linear-gradient-6);}.cls-7{fill:url(#linear-gradient-7);}.cls-8{fill:#fff;}</style><linearGradient id="linear-gradient" x1="64.24" y1="59.55" x2="397.68" y2="-1.65" gradientUnits="userSpaceOnUse"><stop offset="0.01" stop-color="#8a4b21"/><stop offset="0.05" stop-color="#bb6a35"/><stop offset="0.06" stop-color="#cb743b"/><stop offset="0.06" stop-color="#ce7a44"/><stop offset="0.09" stop-color="#dd9c75"/><stop offset="0.11" stop-color="#e8b599"/><stop offset="0.13" stop-color="#efc4af"/><stop offset="0.14" stop-color="#f1c9b7"/><stop offset="0.16" stop-color="#efc5b2"/><stop offset="0.18" stop-color="#ebbaa2"/><stop offset="0.2" stop-color="#e3a889"/><stop offset="0.22" stop-color="#d88f66"/><stop offset="0.24" stop-color="#cd7643"/><stop offset="0.28" stop-color="#ac6332"/><stop offset="0.32" stop-color="#965626"/><stop offset="0.34" stop-color="#8e5122"/><stop offset="0.38" stop-color="#925425"/><stop offset="0.41" stop-color="#9f5c2d"/><stop offset="0.45" stop-color="#b36b3a"/><stop offset="0.47" stop-color="#ca7a49"/><stop offset="0.51" stop-color="#d99872"/><stop offset="0.56" stop-color="#e8b69c"/><stop offset="0.59" stop-color="#f2c8b6"/><stop offset="0.61" stop-color="#f5cfbf"/><stop offset="0.75" stop-color="#e49370"/><stop offset="0.85" stop-color="#c27045"/><stop offset="0.96" stop-color="#d4845c"/><stop offset="0.96" stop-color="#d4845d"/></linearGradient><linearGradient id="linear-gradient-2" x1="63.34" y1="50.49" x2="383.59" y2="6.63" xlink:href="#linear-gradient"/><linearGradient id="linear-gradient-3" x1="65.52" y1="59.07" x2="411.93" y2="-3.25" xlink:href="#linear-gradient"/><linearGradient id="linear-gradient-4" x1="405.71" y1="30.54" x2="143.36" y2="53.49" gradientUnits="userSpaceOnUse"><stop offset="0.11" stop-color="#7cc7ef"/><stop offset="0.48" stop-color="#0091e6"/><stop offset="0.59" stop-color="#0288dc"/><stop offset="0.77" stop-color="#086fc2"/><stop offset="1" stop-color="#114797"/></linearGradient><linearGradient id="linear-gradient-5" x1="85.3" y1="61.67" x2="100.11" y2="85.37" gradientUnits="userSpaceOnUse"><stop offset="0" stop-color="#975525"/><stop offset="0.14" stop-color="#9b5828"/><stop offset="0.29" stop-color="#a86131"/><stop offset="0.44" stop-color="#bc703f"/><stop offset="0.51" stop-color="#ca7a49"/><stop offset="0.61" stop-color="#d79168"/><stop offset="0.76" stop-color="#e8af92"/><stop offset="0.88" stop-color="#f3c2ac"/><stop offset="0.95" stop-color="#f7c9b5"/></linearGradient><linearGradient id="linear-gradient-6" x1="83.8" y1="62.6" x2="97.24" y2="84.1" xlink:href="#linear-gradient-5"/><linearGradient id="linear-gradient-7" x1="85.6" y1="60.88" x2="98.9" y2="88.15" xlink:href="#linear-gradient-5"/></defs><path class="cls-1" d="M396.06,0C300.35,0,206.27,1.32,111.59,38.57,82.3,50.09,66,69.14,66,69.14s12.67-9,27-13.53C161.08,29.67,251.2,28.14,352.5,28.14Z"/><path class="cls-2" d="M103.08,52l-1.3.44c3.24-1.74,6.68-3.41,10.32-4.94a449.36,449.36,0,0,1,70.75-23.09,549.69,549.69,0,0,1,70.62-11.89C296.26,8,338.08,7.67,383.62,8l-.34.21c-45.4-.36-87.11,0-129.79,4.52a549.07,549.07,0,0,0-70.6,11.89,450,450,0,0,0-70.72,23.07C109,49.07,106,50.52,103.08,52Zm9.11-6.2a450,450,0,0,1,70.72-23.07,549.07,549.07,0,0,1,70.6-11.89C297.09,6.25,339.66,6,386.18,6.38l.34-.22c-46.66-.4-89.34-.14-133,4.49a551.4,551.4,0,0,0-70.62,11.9,449.33,449.33,0,0,0-70.75,23.08,123.74,123.74,0,0,0-18.55,9.78l.94-.34A123.82,123.82,0,0,1,112.19,45.83ZM253.47,12.12A550.94,550.94,0,0,0,182.86,24,450.37,450.37,0,0,0,112.11,47.1a120.7,120.7,0,0,0-12.32,6l1.15-.39a122.29,122.29,0,0,1,11.24-5.44A450,450,0,0,1,182.9,24.23a551,551,0,0,1,70.59-11.89c42.89-4.54,84.79-4.87,130.44-4.51l.34-.22C338.48,7.24,296.47,7.57,253.47,12.12Zm.05-4.53A549.69,549.69,0,0,0,182.9,19.48a450.37,450.37,0,0,0-70.75,23.08A127.2,127.2,0,0,0,84.11,59l.81-.35a126.58,126.58,0,0,1,27.3-15.89,450,450,0,0,1,70.72-23.08A550.81,550.81,0,0,1,253.54,7.8c45-4.77,89-4.9,137.33-4.45l.33-.21C342.72,2.68,298.66,2.8,253.52,7.59ZM112.06,46.44a450,450,0,0,1,70.72-23.07,549.07,549.07,0,0,1,70.6-11.89C296.71,6.89,339,6.59,385.25,7l.34-.22c-46.35-.39-88.79-.1-132.23,4.5a549.1,549.1,0,0,0-70.62,11.89A449.36,449.36,0,0,0,112,46.24,123,123,0,0,0,95.6,54.67l1-.38A122,122,0,0,1,112.06,46.44ZM254.17,14.76a551.4,551.4,0,0,0-70.62,11.9,451.05,451.05,0,0,0-64,20.34l1.62-.43a450.86,450.86,0,0,1,62.46-19.7A549.07,549.07,0,0,1,254.19,15c41.39-4.38,81.88-4.85,125.71-4.54l.34-.22C336.28,9.91,295.68,10.37,254.17,14.76Zm.14,3.4a549.4,549.4,0,0,0-70.62,11.89c-13.08,3.13-25.68,6.72-38,10.8l1.7-.34c11.81-3.86,23.87-7.26,36.36-10.25a552.57,552.57,0,0,1,70.6-11.89c39.71-4.2,78.58-4.8,120.37-4.57l.34-.22C333.12,13.35,294.13,13.94,254.31,18.16Zm-.17-.63a549.69,549.69,0,0,0-70.62,11.89c-14.81,3.55-29,7.68-42.91,12.46l1.72-.35c13.36-4.54,27-8.49,41.24-11.89a548.91,548.91,0,0,1,70.59-11.89c40.07-4.25,79.29-4.82,121.5-4.57L376,13C333.65,12.71,294.33,13.27,254.14,17.53Zm-.64-8a549.69,549.69,0,0,0-70.62,11.89,449.36,449.36,0,0,0-70.75,23.09,124.63,124.63,0,0,0-22,12.06l.77-.27a124.39,124.39,0,0,1,21.3-11.59,449,449,0,0,1,70.72-23.07,549.07,549.07,0,0,1,70.6-11.89c44.1-4.68,87.17-4.9,134.35-4.48l.34-.22C340.89,4.65,297.71,4.86,253.5,9.55ZM254.12,20a551.1,551.1,0,0,0-70.62,11.9c-8.25,2-16.29,4.14-24.21,6.48l1.82-.31c7.35-2.14,14.8-4.13,22.43-6a549.07,549.07,0,0,1,70.6-11.89c38.87-4.12,77-4.77,117.75-4.59l.34-.22C331.3,15.2,293.11,15.85,254.12,20Zm-71.24,6.09a550.81,550.81,0,0,1,70.6-11.89c42-4.45,83.07-4.86,127.64-4.53l.33-.22c-44.7-.33-85.88.07-128,4.54a549.1,549.1,0,0,0-70.62,11.89,450.37,450.37,0,0,0-70.75,23.08c-.55.23-1.08.47-1.62.71.65-.2,1.3-.42,2-.61A450,450,0,0,1,182.88,26.07Zm71.3-10c40.89-4.34,80.9-4.84,124.11-4.56l.33-.22c-43.34-.28-83.45.21-124.46,4.56a549.23,549.23,0,0,0-70.61,11.89,455.24,455.24,0,0,0-55.94,17.17l1.63-.39a453.9,453.9,0,0,1,54.35-16.56A549.21,549.21,0,0,1,254.18,16Zm-142,22.72A129.39,129.39,0,0,0,73.33,64.53l.76-.44A129.29,129.29,0,0,1,112.26,39q12.19-5.13,24.61-9.5-4.62,1.51-9.24,3.15Q119.86,35.54,112.19,38.76ZM66.69,68.42l.41-.5-.44.48Zm27.8-21.61Q92.15,48.15,90,49.5A128.31,128.31,0,0,0,69.78,66.66l.71-.44A129.19,129.19,0,0,1,94.49,46.81ZM240.54,30.16l2.88-.15c4.09-.51,8.2-1,12.4-1.45C290,24.94,323.62,24,359,24l.34-.23c-35.5.05-69.2,1-103.53,4.62C250.62,28.89,245.55,29.51,240.54,30.16Zm114.09-3.4.35-.22c-23.79.08-46.81.6-69.79,2.11l4.8-.09C311.27,27.29,332.63,26.84,354.63,26.76Zm1.74-1.12c-30.21.08-59.16.85-88.35,3.43l3.75-.11c27.81-2.31,55.47-3,84.26-3.1ZM255.83,25c-18,1.91-34.83,4.44-51.11,7.66l2.11-.19c15.63-3,31.83-5.43,49-7.25,35.88-3.8,71.07-4.65,108.34-4.61l.34-.22C327.13,20.32,291.82,21.17,255.83,25Zm0,1.89c-11.15,1.18-21.87,2.62-32.3,4.29L226,31c9.67-1.51,19.59-2.82,29.89-3.91,34.94-3.7,69.23-4.61,105.43-4.62l.34-.22C325.28,22.26,290.88,23.16,255.82,26.87Zm109.82-7.22.34-.22c-38.25-.08-74.26.72-111,4.61a563.24,563.24,0,0,0-60.38,9.57l2-.19A563.33,563.33,0,0,1,255,24.26C291.62,20.38,327.52,19.57,365.64,19.65ZM253.53,6.36a549.69,549.69,0,0,0-70.62,11.89,449.36,449.36,0,0,0-70.75,23.09A128.07,128.07,0,0,0,80.44,60.73l.81-.39a127.3,127.3,0,0,1,31-18.8A448.61,448.61,0,0,1,183,18.47,548.91,548.91,0,0,1,253.55,6.58c45.6-4.83,90.11-4.91,139.19-4.44l.33-.21C343.86,1.45,299.25,1.52,253.53,6.36ZM255,21.83a550.81,550.81,0,0,0-70.62,11.9c-2.87.68-5.72,1.4-8.55,2.13l2-.28c2.18-.55,4.36-1.11,6.57-1.64A549.07,549.07,0,0,1,255,22.05c37.69-4,74.62-4.73,114-4.61l.34-.22C329.87,17.09,292.83,17.83,255,21.83Zm-.71-5.21a549.4,549.4,0,0,0-70.62,11.89,457.35,457.35,0,0,0-49.51,14.8l1.66-.37a454.72,454.72,0,0,1,47.89-14.21,549.07,549.07,0,0,1,70.6-11.89c40.46-4.29,80-4.83,122.73-4.57l.34-.22C334.58,11.79,294.88,12.32,254.31,16.62ZM255,21a549.07,549.07,0,0,0-70.62,11.9q-7.62,1.82-15,3.87c.61-.09,1.22-.19,1.83-.27,4.37-1.18,8.77-2.32,13.24-3.39A549.21,549.21,0,0,1,255,21.22c38.1-4,75.42-4.75,115.29-4.6l.34-.22C330.67,16.25,293.24,17,255,21Z"/><path class="cls-3" d="M116.4,47.89l-1.92.55a450.22,450.22,0,0,1,68.37-22.11,549.23,549.23,0,0,1,70.61-11.89C295.35,10,336.31,9.58,380.73,9.9l-.34.22c-44.29-.32-85.14.11-126.91,4.54a549.21,549.21,0,0,0-70.59,11.89A450.66,450.66,0,0,0,116.4,47.89Zm-4.22.32A450,450,0,0,1,182.9,25.13a549.07,549.07,0,0,1,70.6-11.89c42.44-4.49,83.94-4.87,129.06-4.52l.33-.22C337.64,8.15,296,8.52,253.48,13a550.81,550.81,0,0,0-70.62,11.9A450.37,450.37,0,0,0,112.11,48c-2.69,1.13-5.27,2.34-7.74,3.59l1.54-.52C107.93,50.08,110,49.12,112.18,48.21Zm142-31.7c40.66-4.31,80.44-4.83,123.37-4.56l.34-.22c-43.07-.28-82.95.24-123.73,4.56a547.93,547.93,0,0,0-70.62,11.9A454.26,454.26,0,0,0,131.14,44l1.93-.47A456.56,456.56,0,0,1,183.6,28.4,548.91,548.91,0,0,1,254.19,16.51Zm0-1.27a549.4,549.4,0,0,0-70.62,11.89,453,453,0,0,0-60.48,18.92l1.92-.5a451.88,451.88,0,0,1,58.6-18.2,549.07,549.07,0,0,1,70.6-11.89c41.16-4.36,81.43-4.85,125-4.55l.34-.22C335.83,10.39,295.46,10.87,254.18,15.24Zm-.7-2.64a549.23,549.23,0,0,0-70.61,11.89,450,450,0,0,0-70.75,23.08c-3.54,1.49-6.89,3.11-10.05,4.8l1.31-.44q4.2-2.19,8.81-4.15a448.61,448.61,0,0,1,70.72-23.07A549.21,549.21,0,0,1,253.5,12.82C296.15,8.3,337.84,7.94,383.21,8.3l.33-.22C338,7.72,296.25,8.07,253.48,12.6Zm.05-4.54A549.69,549.69,0,0,0,182.91,20,449.36,449.36,0,0,0,112.16,43,125.82,125.82,0,0,0,85.58,58.38L86.4,58a126.17,126.17,0,0,1,25.83-14.79A449,449,0,0,1,183,20.17a549.07,549.07,0,0,1,70.6-11.89c44.8-4.75,88.54-4.9,136.59-4.46l.34-.22C342.28,3.16,298.44,3.3,253.53,8.06ZM160,22.5Q154,24.14,148.1,25.91c-12.19,3.94-24.1,8.35-35.9,13.32A129.32,129.32,0,0,0,74.59,63.81l.78-.43a128.71,128.71,0,0,1,36.9-23.94A443.73,443.73,0,0,1,160,22.5Zm94.17-2a549.1,549.1,0,0,0-70.62,11.89q-10.39,2.49-20.41,5.37l1.62-.24q9.27-2.62,18.83-4.91a549.21,549.21,0,0,1,70.59-11.89c38.65-4.1,76.51-4.77,117-4.6l.34-.22C330.85,15.68,292.89,16.35,254.13,20.46Zm.19-1.83A549.1,549.1,0,0,0,183.7,30.52c-11.8,2.82-23.2,6-34.37,9.62l1.75-.33c10.63-3.37,21.47-6.39,32.66-9.07a549.21,549.21,0,0,1,70.59-11.89c39.48-4.18,78.14-4.8,119.64-4.58l.34-.22C332.67,13.83,293.91,14.43,254.32,18.63ZM112.2,46.31a450,450,0,0,1,70.72-23.08,552.57,552.57,0,0,1,70.6-11.89c43.35-4.59,85.7-4.88,131.94-4.5l.34-.21c-46.38-.39-88.84-.11-132.3,4.5A549.4,549.4,0,0,0,182.88,23,450.37,450.37,0,0,0,112.13,46.1,123.91,123.91,0,0,0,95.4,54.74l1-.38A122.07,122.07,0,0,1,112.2,46.31ZM72.05,63.1c-1.33,1.21-2.44,2.28-3.34,3.17-1.39,1.52-2.13,2.44-2.16,2.48h0l.6-.4C67.89,67.47,69.55,65.59,72.05,63.1ZM253.51,10a549.66,549.66,0,0,0-70.62,11.9A448.3,448.3,0,0,0,112.14,45,124.47,124.47,0,0,0,91.6,56.08l.77-.25A124,124,0,0,1,112.21,45.2a450,450,0,0,1,70.72-23.07,549.07,549.07,0,0,1,70.6-11.89c43.87-4.65,86.72-4.89,133.62-4.49l.33-.21C340.45,5.13,297.5,5.36,253.51,10Zm.64,8a551.4,551.4,0,0,0-70.62,11.9c-13.56,3.24-26.6,7-39.37,11.26l1.69-.34c12.24-4,24.75-7.6,37.72-10.71a549.07,549.07,0,0,1,70.6-11.89C294,14,333,13.41,374.93,13.65l.34-.22C333.2,13.19,294.1,13.77,254.15,18ZM70.92,66l.72-.43a130.27,130.27,0,0,1,32.52-23.75Q101.48,43,99,44.35A130.6,130.6,0,0,0,70.92,66ZM388.89,0l6.49.06V0ZM254.32,17.09A549.07,549.07,0,0,0,183.7,29a456.43,456.43,0,0,0-46.1,13.56l1.73-.39a461,461,0,0,1,44.41-13,549.21,549.21,0,0,1,70.59-11.89c40.23-4.26,79.6-4.82,122-4.57l.34-.22C334.13,12.27,294.66,12.82,254.32,17.09Zm-.78-10.26a549.66,549.66,0,0,0-70.62,11.9,448.3,448.3,0,0,0-70.75,23.08A127.85,127.85,0,0,0,81.87,60l.82-.38A127.2,127.2,0,0,1,112.24,42,450,450,0,0,1,183,18.94a549.07,549.07,0,0,1,70.6-11.89C298.94,2.24,343.23,2.15,392,2.61l.33-.22C343.42,1.93,299,2,253.54,6.83Zm0,0a549.69,549.69,0,0,0-70.62,11.89,450.37,450.37,0,0,0-70.75,23.08,127.85,127.85,0,0,0-30.3,18.24l.82-.39a127.54,127.54,0,0,1,29.55-17.64A449,449,0,0,1,183,19a549.07,549.07,0,0,1,70.6-11.89C298.94,2.28,343.23,2.18,392,2.64l.33-.21C343.42,2,299,2.05,253.54,6.87ZM353.9,27.23l.34-.22c-19.59.08-38.66.46-57.62,1.44l6.14-.08C319.6,27.62,336.55,27.3,353.9,27.23Zm-98.06-1.77c-16.32,1.73-31.74,4-46.63,6.78l2.1-.17c14.25-2.63,29-4.75,44.55-6.39,35.64-3.78,70.6-4.65,107.6-4.62l.34-.22C326.67,20.81,291.6,21.67,255.84,25.46Zm0,0c-16.32,1.73-31.74,4-46.63,6.79l2.1-.18c14.25-2.63,29-4.74,44.55-6.39,35.64-3.77,70.6-4.64,107.6-4.62l.34-.22C326.67,20.84,291.6,21.7,255.84,25.49Zm0,1.85c-9.34,1-18.39,2.15-27.22,3.49l2.64-.16c8-1.17,16.17-2.21,24.6-3.11,34.71-3.67,68.77-4.59,104.7-4.62l.34-.22C324.82,22.74,290.65,23.66,255.82,27.34ZM112.07,46.92a450,450,0,0,1,70.72-23.08A549.21,549.21,0,0,1,253.38,12c43.11-4.56,85.22-4.88,131.15-4.5l.34-.22c-46.07-.38-88.29-.07-131.51,4.5a550.94,550.94,0,0,0-70.61,11.9A450.37,450.37,0,0,0,112,46.71a121.35,121.35,0,0,0-14.34,7.2l1.16-.42A120.22,120.22,0,0,1,112.07,46.92Zm143.74-18.1q-4.71.49-9.31,1.05l3.19-.14c2-.24,4.07-.48,6.14-.69,34-3.6,67.33-4.56,102.42-4.62l.34-.22C323.37,24.26,289.9,25.21,255.81,28.82Zm99.82-2.71c-27,.08-53,.73-79.06,2.73l4.22-.1c24.55-1.75,49.09-2.33,74.5-2.41Zm9.28-6,.34-.22c-38-.07-73.76.75-110.25,4.61-19.83,2.11-38.33,5-56.16,8.68l2-.19c17.23-3.52,35.1-6.24,54.2-8.27C291.39,20.88,327.07,20.06,364.91,20.12ZM255,21.48a549.23,549.23,0,0,0-70.61,11.89c-3.82.91-7.58,1.88-11.33,2.87l1.7-.24q4.8-1.24,9.67-2.42a552.7,552.7,0,0,1,70.59-11.89c37.86-4,75-4.74,114.55-4.6l.34-.22C330.22,16.73,293,17.45,255,21.48Zm0,.83A549.1,549.1,0,0,0,184.41,34.2c-1.51.36-3,.75-4.5,1.12l1.8-.22,2.74-.68A549.21,549.21,0,0,1,255,22.53c37.46-4,74.17-4.73,113.28-4.61l.34-.22C329.42,17.58,292.6,18.33,255,22.31Z"/><path class="cls-4" d="M313.14,54.13C229.07,44.93,154,40.28,93,55.61,161.08,29.67,251.2,28.14,352.5,28.14Z"/><path class="cls-5" d="M65.62,85.06l14.06,17.5s31.54-36.82,37.75-44.39c-11.86-.06-46.64,6-52.06,20.31C63.72,82.83,65.62,85.06,65.62,85.06Z"/><path class="cls-6" d="M90.25,90.21l-.17.19c-6.67-8.63-11.53-17.82-8.22-25l.34-.13C78.72,72.35,83.57,81.55,90.25,90.21Zm-8.61-24.7-.36.15C77.76,72.88,82.77,82.24,89.57,91l.16-.2C82.92,82,77.94,72.65,81.64,65.51Zm-2.35,1-.38.18C75,74.19,80.54,84.05,87.75,93.13l.16-.19C80.67,83.81,75.17,73.92,79.29,66.52Zm-1.82.87-.39.2c-3.87,7.66,2,17.77,9.43,27l.17-.19C79.22,85.11,73.34,75,77.47,67.39Zm7.4-3.11-.33.11c-2.59,6.8,1.71,15.28,7.8,23.37,0-.07.11-.13.16-.19C86.41,79.47,82.14,71,84.87,64.28Zm-1.71.63-.32.12c-3,7,1.6,16,8.06,24.41l.17-.2C84.6,80.79,80,71.85,83.16,64.91Zm5.89-2-.29.09c-1.8,6.19,1.68,13.64,6.88,20.9,0-.06.11-.12.16-.19C90.62,76.44,87.18,69,89.05,62.9Zm-2,.64-.29.1c-2.13,6.48,1.73,14.41,7.35,22.07l.17-.19C88.63,77.86,84.8,70,87,63.54ZM85.73,64l-.32.11C83,70.76,87.11,79,93,87c0-.07.11-.13.17-.2C87.28,78.83,83.19,70.58,85.73,64ZM66.82,75.74c-.14.2-.26.41-.38.61-.78,4.8,1.41,10.3,4.86,15.78L73,94.19C68.55,87.79,65.59,81.26,66.82,75.74Zm2.52-2.89-.44.42C66,81.39,73.09,92,80.85,101.18L81,101C73.14,91.66,66,80.91,69.34,72.85Zm-3.08,13,.52.66a19.78,19.78,0,0,1-1.67-7.29,7.36,7.36,0,0,0-.21.84A19.81,19.81,0,0,0,66.26,85.85Zm10.32-18-.4.21C72,75.82,78,86.19,85.65,95.58c.06-.06.11-.13.16-.19C78.17,86,72.06,75.52,76.58,67.86Zm-6.14,4-.42.35c-3.44,8.12,3.58,18.85,11.46,28.23,0-.06.11-.12.16-.19C73.68,90.78,66.6,79.91,70.44,71.87Zm3.9-2.75-.42.25c-4.11,7.93,2.39,18.54,10.19,28l.16-.19C76.42,87.64,69.89,77,74.34,69.12Zm-3,2-.49.39C67.06,79.63,74,90.43,81.94,99.91c0-.06.11-.12.16-.19C74.08,90.12,67.08,79.18,71.33,71.15Zm2.36-1.63-.43.28c-4.2,8,2.44,18.69,10.3,28.22l.17-.19C75.8,88.22,69.13,77.4,73.69,69.52Zm20.74-8.09-.27.07c-.51,5.22,2.11,11.13,6.06,17l.16-.19C96.46,72.47,93.88,66.59,94.43,61.43ZM101.14,60l-.25.05c.28,3.9,2,8.09,4.58,12.33.06-.07.12-.13.17-.2C103.12,68,101.41,63.81,101.14,60Zm6.8-1.08-.24,0a28.06,28.06,0,0,0,2.75,7.57l.17-.2A28.27,28.27,0,0,1,107.94,58.89Zm-2.19.31-.25,0a28.49,28.49,0,0,0,3.35,9.14c.05-.07.11-.13.17-.2A27.9,27.9,0,0,1,105.75,59.2Zm-2.7.43-.24,0a27.8,27.8,0,0,0,4,11.14,1.63,1.63,0,0,1,.17-.2A27.48,27.48,0,0,1,103.05,59.63Zm1.5-.25-.24,0a28.29,28.29,0,0,0,3.66,10l.17-.2A28.21,28.21,0,0,1,104.55,59.38Zm4.25-.6-.25,0a28.15,28.15,0,0,0,2.53,6.94,1.63,1.63,0,0,1,.17-.2A28.07,28.07,0,0,1,108.8,58.78ZM89.62,62.73l-.28.09c-1.55,6.07,1.84,13.31,6.88,20.4l.16-.2C91.36,76,88,68.74,89.62,62.73ZM111,58.53l-.25,0a29,29,0,0,0,1.93,5.25l.17-.21A28.9,28.9,0,0,1,111,58.53Zm2.18-.19-.25,0A27.52,27.52,0,0,0,114.29,62l.17-.22A26.8,26.8,0,0,1,113.22,58.34ZM93,61.79l-.26.07c-.72,5.47,2.11,11.74,6.36,18l.17-.19C95.05,73.43,92.25,67.2,93,61.79Zm7.22-1.64-.25.05c.14,4.11,2,8.57,4.71,13.08a1.63,1.63,0,0,1,.17-.2C102.15,68.61,100.35,64.2,100.23,60.15Zm-8.88,2.09-.27.07C89.75,68.12,92.82,75,97.5,81.72l.16-.2C93,74.79,90,68,91.35,62.24Zm.92-.25-.27.07c-1,5.63,1.92,12.17,6.36,18.64l.17-.19C94.1,74.06,91.21,67.56,92.27,62Zm4.07-1-.26.06c-.36,4.88,2,10.37,5.52,15.86l.17-.2C98.25,71.25,96,65.81,96.34,61Zm2.8-.61-.26.05c0,4.34,1.94,9.11,4.91,13.92l.16-.2C101,69.37,99.1,64.65,99.14,60.37Zm-1.93.41-.25.06c-.24,4.72,2,10,5.33,15.26a1.63,1.63,0,0,1,.17-.2C99.12,70.65,97,65.44,97.21,60.78Z"/><path class="cls-7" d="M91.11,89.2l-.17.19C84.49,81,79.84,72,82.9,65l.32-.13C80,71.82,84.65,80.75,91.11,89.2ZM80.32,66.07l-.37.16c-3.65,7.37,1.64,17,8.65,25.9l.17-.2C81.73,83,76.46,73.35,80.32,66.07Zm2.33-1-.34.13c-3.25,7.1,1.53,16.2,8.12,24.75l.16-.19C84,81.22,79.23,72.12,82.65,65.11Zm5.41-1.9-.3.09c-1.87,6.33,1.8,14,7.19,21.4,0-.07.11-.13.17-.2C89.74,77.09,86.1,69.47,88.06,63.21Zm-1.31.42-.29.1c-2.17,6.52,1.75,14.51,7.43,22.21l.16-.19C88.38,78.05,84.49,70.08,86.75,63.63Zm3.33-1-.29.08c-1.54,6,1.76,13.18,6.72,20.19l.16-.19C91.73,75.68,88.47,68.55,90.08,62.6Zm-4.2,1.33-.31.1c-2.33,6.64,1.77,14.85,7.63,22.72l.17-.2C87.51,78.68,83.44,70.49,85.88,63.93Zm-1.7.6-.32.12c-2.77,6.88,1.67,15.54,7.91,23.78l.16-.2C85.69,80,81.28,71.34,84.18,64.53Zm-5.64,2.35-.39.18c-3.7,7.54,2,17.44,9.22,26.51l.17-.19C80.26,84.27,74.6,74.33,78.54,66.88Zm-10.26,7-.4.45c-2.35,8.11,4.73,18.51,12.37,27.52,0-.07.1-.12.16-.19C72.67,92.55,65.5,82,68.28,73.92Zm2.44-2.28-.43.36c-3.46,8.1,3.56,18.83,11.41,28.19l.17-.19C73.93,90.53,66.84,79.67,70.72,71.64Zm1.08-.83-.46.34c-3.83,8.07,3.1,18.85,11,28.31l.16-.19C74.52,89.7,67.55,78.8,71.8,70.81Zm-5.36,5.53-.34.57c-.51,4.14,1.1,8.78,3.79,13.47L71,91.77C67.67,86.39,65.6,81,66.44,76.34Zm6.18-6.12-.46.33c-4.1,8,2.71,18.84,10.63,28.37l.16-.19C75,89.09,68.09,78.17,72.62,70.22Zm2.86-1.77-.41.24C71,76.52,77.28,87,85,96.39c.05-.07.11-.13.17-.2C77.39,86.73,71.08,76.19,75.48,68.45Zm2.19-1.15-.39.19c-4.1,7.64,1.77,17.82,9.22,27.09l.17-.19C79.18,85.07,73.3,74.85,77.67,67.3Zm-2.81,1.51-.41.24c-4.26,7.88,2.19,18.49,10,28l.17-.19C76.76,87.29,70.28,76.6,74.86,68.81Zm30.89-9.61-.25,0a28.52,28.52,0,0,0,3.38,9.11l.17-.2A28.2,28.2,0,0,1,105.75,59.2ZM107,59l-.24,0a28.4,28.4,0,0,0,3,8.25l.17-.21A28.08,28.08,0,0,1,107,59Zm2.22-.28-.25,0a28.71,28.71,0,0,0,2.43,6.64l.18-.2A28.13,28.13,0,0,1,109.18,58.74Zm-7.79,1.19-.25,0c.24,3.87,1.93,8,4.45,12.25l.16-.2C103.28,67.85,101.61,63.74,101.39,59.93Zm.93-.17-.25.05a29,29,0,0,0,4.3,11.48l.17-.19A28.45,28.45,0,0,1,102.32,59.76Zm1.92-.33-.24,0a27.87,27.87,0,0,0,3.69,10.27c.06-.07.12-.13.17-.2A27.76,27.76,0,0,1,104.24,59.43Zm10.29-1.17h-.25a25,25,0,0,0,1,2.56l.17-.21C115.07,59.82,114.78,59,114.53,58.26Zm-2.22.16-.25,0a28.9,28.9,0,0,0,1.58,4.27l.18-.21A28.63,28.63,0,0,1,112.31,58.42Zm-2.27.22-.24,0a28.33,28.33,0,0,0,2.19,6l.18-.21A28.34,28.34,0,0,1,110,58.64ZM90.68,62.43l-.28.08c-1.31,5.9,1.89,12.85,6.69,19.68,0-.06.11-.12.16-.19C92.47,75.19,89.3,68.26,90.68,62.43Zm2.66-.72-.26.06c-.82,5.44,2,11.69,6.16,17.9l.16-.19C95.22,73.3,92.48,67.08,93.34,61.71Zm-.93.24-.27.07c-1.1,5.63,1.8,12.18,6.23,18.67l.17-.2C94.13,74,91.26,67.51,92.41,62Zm1.69-.43-.26.06C93.3,66.85,96,72.84,100,78.79l.16-.19C96.17,72.67,93.53,66.72,94.1,61.52Zm6.18-1.38-.25,0c.1,4.11,1.91,8.58,4.65,13.1,0-.07.11-.13.17-.2C102.14,68.62,100.36,64.2,100.28,60.14Zm-2,.4-.25.05c-.1,4.5,2,9.46,5.1,14.46,0-.07.11-.13.17-.2C100.24,69.9,98.22,65,98.33,60.54Zm-.87.18-.25.06c-.21,4.67,2,9.86,5.28,15.08l.17-.2C99.37,70.48,97.23,65.34,97.46,60.72Zm-1.94.45-.25.06c-.35,5,2.12,10.64,5.83,16.26l.17-.2C97.59,71.71,95.15,66.12,95.52,61.17Z"/><polygon class="cls-8" points="14.78 152.05 14.78 99.13 0 99.13 0 165.54 53.51 165.54 53.51 152.05 14.78 152.05"/><path class="cls-8" d="M97.76,99.13,85,118.92a68.78,68.78,0,0,0-5.28,9.91,68.78,68.78,0,0,0-5.28-9.91L61.47,99.13H44.4l27.89,43.16v23.25H87.07V142.29L115,99.13Z"/><path class="cls-8" d="M181.53,131.4a16,16,0,0,0,5.12-12c0-12.14-8.16-20.3-20.3-20.3H122.82v66.41h46.11c12.14,0,20.3-8.16,20.3-20.3a15.56,15.56,0,0,0-7.7-13.84m-7.08,13.2v1.93a5.17,5.17,0,0,1-5.52,5.52H137.6v-13h31.33a5.18,5.18,0,0,1,5.52,5.52m-36.85-19v-13h28.75a5.18,5.18,0,0,1,5.52,5.52v1.93a5.18,5.18,0,0,1-5.52,5.52Z"/><path class="cls-8" d="M242,99.13H221.37l-27.22,66.41h15.7l5.3-12.91H248l5.3,12.91h16Zm.43,40H220.69l10.85-26.52Z"/><polygon class="cls-8" points="292.84 152.05 292.84 99.13 278.06 99.13 278.06 165.54 331.56 165.54 331.56 152.05 292.84 152.05"/><polygon class="cls-8" points="386.28 99.13 364.6 152.05 342.88 99.13 326.91 99.13 354.14 165.54 374.76 165.54 401.99 99.13 386.28 99.13"/><rect class="cls-8" x="410.82" y="99.13" width="14.78" height="66.41"/><path class="cls-8" d="M443,99.13a8.06,8.06,0,1,1-8.06,8.05A8.08,8.08,0,0,1,443,99.13Zm0,14.74a6.67,6.67,0,1,0-6.66-6.69A6.68,6.68,0,0,0,443,113.87Zm-3-2.64v-8.31h3.08c2.29,0,3.09,1.37,3.09,2.51a2.35,2.35,0,0,1-1.81,2.42l2.22,3.38H445L443,108h-1.69v3.19Zm2.89-4.37c1.43,0,2-.5,2-1.4s-.51-1.33-1.88-1.33h-1.69v2.73Z"/><path class="cls-8" d="M11.48,270.46a5,5,0,0,1-3.76,1.65A5.3,5.3,0,0,1,4,270.75a5.52,5.52,0,0,1-1.57-4.21V264.6H4.75v1.85c0,2.48,1.32,3.6,3,3.6a2.42,2.42,0,0,0,2-1c.74-1,1-2.19,1-6.49s-.33-5.49-1-6.53a2.39,2.39,0,0,0-2.07-1.07c-1.65,0-3,1.36-3,3.43v1.36H2.6V242.37H12.72v2.07h-8v10.41a4.32,4.32,0,0,1,1.36-1.37,4.24,4.24,0,0,1,2.23-.57,4.13,4.13,0,0,1,3.35,1.61c1.16,1.36,1.49,3,1.49,8C13.14,267.12,12.85,268.93,11.48,270.46Z"/><path class="cls-8" d="M36.66,271.78V256c0-2.31-1.28-3.42-2.89-3.42s-2.93,1.11-2.93,3.42v15.82H28.52V256c0-2.31-1.28-3.42-2.89-3.42S22.7,253.65,22.7,256v15.82H20.39v-21h2.27v1.69a4.47,4.47,0,0,1,1.2-1.28,4.14,4.14,0,0,1,2.39-.74,4.88,4.88,0,0,1,3.93,2.23,5.39,5.39,0,0,1,1.44-1.49,4.67,4.67,0,0,1,2.52-.74,4.35,4.35,0,0,1,3.55,1.44c.83.87,1.28,2,1.28,4.13v15.78Z"/><path class="cls-8" d="M52.11,272.4c0,3.51-.37,5-1.57,6.32a5.61,5.61,0,0,1-7.56.13,5.88,5.88,0,0,1-1.45-4.42h2.28a4,4,0,0,0,.91,3,2.67,2.67,0,0,0,2,.79,2.6,2.6,0,0,0,2.06-.91c.79-.83,1-2.23,1-4.88v-2.68a4,4,0,0,1-1.12,1.2,3.9,3.9,0,0,1-2.35.7,4.11,4.11,0,0,1-3.27-1.45c-1.28-1.48-1.61-3.84-1.61-9.17s.29-7.68,1.61-9.13a4.14,4.14,0,0,1,3.27-1.48,4,4,0,0,1,2.39.7,3.92,3.92,0,0,1,1.12,1.24v-1.61h2.27ZM49.8,256.17a3.86,3.86,0,0,0-.95-2.89,2.87,2.87,0,0,0-2-.79,2.64,2.64,0,0,0-2,.95c-1,1.08-1.07,3-1.07,7.64s.12,6.57,1.07,7.65a2.84,2.84,0,0,0,4,.16A4,4,0,0,0,49.8,266Z"/><path class="cls-8" d="M56.18,274.84H53.83l7.64-35.52h2.35Z"/><path class="cls-8" d="M69.28,271.78V245.1l-4.21,3.63V246l4.21-3.6H71.6v29.41Z"/><path class="cls-8" d="M85.26,270.67a5.48,5.48,0,0,1-3.76,1.44,5.4,5.4,0,0,1-3.72-1.44,5.5,5.5,0,0,1-1.48-4.17V247.66a5.5,5.5,0,0,1,1.48-4.17A5.4,5.4,0,0,1,81.5,242a5.08,5.08,0,0,1,5.25,5.62V266.5A5.47,5.47,0,0,1,85.26,270.67Zm-.82-23.13c0-2.32-1.33-3.43-2.94-3.43s-2.89,1.11-2.89,3.43v19.08c0,2.31,1.28,3.43,2.89,3.43s2.94-1.12,2.94-3.43Z"/><path class="cls-8" d="M110.59,271.78V256c0-2.31-1.28-3.42-2.89-3.42s-2.93,1.11-2.93,3.42v15.82h-2.31V256c0-2.31-1.28-3.42-2.89-3.42s-2.94,1.11-2.94,3.42v15.82H94.32v-21h2.27v1.69a4.61,4.61,0,0,1,1.2-1.28,4.17,4.17,0,0,1,2.4-.74,4.88,4.88,0,0,1,3.92,2.23,5.53,5.53,0,0,1,1.44-1.49,4.69,4.69,0,0,1,2.52-.74,4.39,4.39,0,0,1,3.56,1.44c.82.87,1.28,2,1.28,4.13v15.78Z"/><path class="cls-8" d="M126,272.4c0,3.51-.37,5-1.57,6.32a5.2,5.2,0,0,1-3.75,1.53,5.31,5.31,0,0,1-3.81-1.4,5.88,5.88,0,0,1-1.44-4.42h2.27a4,4,0,0,0,.91,3,2.7,2.7,0,0,0,2,.79,2.64,2.64,0,0,0,2.07-.91c.78-.83,1-2.23,1-4.88v-2.68a3.87,3.87,0,0,1-3.47,1.9,4.11,4.11,0,0,1-3.26-1.45c-1.28-1.48-1.61-3.84-1.61-9.17s.29-7.68,1.61-9.13a4.13,4.13,0,0,1,3.26-1.48,4.06,4.06,0,0,1,2.4.7,4,4,0,0,1,1.11,1.24v-1.61H126Zm-2.31-16.23a3.86,3.86,0,0,0-1-2.89,2.87,2.87,0,0,0-2-.79,2.66,2.66,0,0,0-2,.95c-1,1.08-1.07,3-1.07,7.64s.12,6.57,1.07,7.65a2.84,2.84,0,0,0,4,.16,4,4,0,0,0,1-2.93Z"/><path class="cls-8" d="M135.22,262.37a2.42,2.42,0,1,1,2.42-2.42A2.41,2.41,0,0,1,135.22,262.37Z"/><path class="cls-8" d="M144.87,271.78V245.1l-4.21,3.63V246l4.21-3.6h2.32v29.41Z"/><path class="cls-8" d="M160.85,270.67a5.48,5.48,0,0,1-3.76,1.44,5.35,5.35,0,0,1-3.71-1.44,5.47,5.47,0,0,1-1.49-4.17V247.66a5.47,5.47,0,0,1,1.49-4.17,5.36,5.36,0,0,1,3.71-1.45,5.08,5.08,0,0,1,5.25,5.62V266.5A5.47,5.47,0,0,1,160.85,270.67ZM160,247.54c0-2.32-1.33-3.43-2.94-3.43s-2.89,1.11-2.89,3.43v19.08c0,2.31,1.28,3.43,2.89,3.43s2.94-1.12,2.94-3.43Z"/><path class="cls-8" d="M186.19,271.78V256c0-2.31-1.28-3.42-2.9-3.42s-2.93,1.11-2.93,3.42v15.82h-2.31V256c0-2.31-1.28-3.42-2.89-3.42s-2.94,1.11-2.94,3.42v15.82h-2.31v-21h2.27v1.69a4.61,4.61,0,0,1,1.2-1.28,4.17,4.17,0,0,1,2.4-.74,4.86,4.86,0,0,1,3.92,2.23,5.42,5.42,0,0,1,1.45-1.49,4.67,4.67,0,0,1,2.52-.74,4.38,4.38,0,0,1,3.55,1.44c.82.87,1.28,2,1.28,4.13v15.78Z"/><path class="cls-8" d="M201.63,272.4c0,3.51-.37,5-1.56,6.32a5.61,5.61,0,0,1-7.56.13,5.84,5.84,0,0,1-1.45-4.42h2.27a4,4,0,0,0,.91,3,2.7,2.7,0,0,0,2,.79,2.63,2.63,0,0,0,2.07-.91c.79-.83,1-2.23,1-4.88v-2.68a4,4,0,0,1-1.11,1.2,3.93,3.93,0,0,1-2.36.7,4.11,4.11,0,0,1-3.26-1.45c-1.28-1.48-1.61-3.84-1.61-9.17s.29-7.68,1.61-9.13a4.13,4.13,0,0,1,3.26-1.48,4.06,4.06,0,0,1,2.4.7,3.89,3.89,0,0,1,1.11,1.24v-1.61h2.27Zm-2.31-16.23a3.86,3.86,0,0,0-.95-2.89,2.87,2.87,0,0,0-2-.79,2.62,2.62,0,0,0-2,.95c-1,1.08-1.08,3-1.08,7.64s.12,6.57,1.08,7.65a2.83,2.83,0,0,0,4,.16,4,4,0,0,0,.95-2.93Z"/><path class="cls-8" d="M205.71,274.84h-2.36L211,239.32h2.36Z"/><path class="cls-8" d="M218.81,271.78V245.1l-4.21,3.63V246l4.21-3.6h2.31v29.41Z"/><path class="cls-8" d="M234.79,270.67a5.5,5.5,0,0,1-3.76,1.44,5.38,5.38,0,0,1-3.72-1.44,5.47,5.47,0,0,1-1.49-4.17V247.66a5.47,5.47,0,0,1,1.49-4.17A5.39,5.39,0,0,1,231,242a5.06,5.06,0,0,1,5.24,5.62V266.5A5.46,5.46,0,0,1,234.79,270.67ZM234,247.54c0-2.32-1.32-3.43-2.93-3.43s-2.89,1.11-2.89,3.43v19.08c0,2.31,1.28,3.43,2.89,3.43s2.93-1.12,2.93-3.43Z"/><path class="cls-8" d="M260.12,271.78V256c0-2.31-1.28-3.42-2.89-3.42s-2.93,1.11-2.93,3.42v15.82H252V256c0-2.31-1.28-3.42-2.89-3.42s-2.93,1.11-2.93,3.42v15.82h-2.32v-21h2.28v1.69a4.58,4.58,0,0,1,1.19-1.28,4.19,4.19,0,0,1,2.4-.74,4.85,4.85,0,0,1,3.92,2.23,5.57,5.57,0,0,1,1.45-1.49,4.67,4.67,0,0,1,2.52-.74,4.38,4.38,0,0,1,3.55,1.44c.83.87,1.28,2,1.28,4.13v15.78Z"/><path class="cls-8" d="M275.57,272.4c0,3.51-.37,5-1.57,6.32a5.61,5.61,0,0,1-7.56.13,5.88,5.88,0,0,1-1.45-4.42h2.28a4,4,0,0,0,.91,3,2.67,2.67,0,0,0,2,.79,2.6,2.6,0,0,0,2.06-.91c.79-.83,1-2.23,1-4.88v-2.68a4,4,0,0,1-1.12,1.2,3.9,3.9,0,0,1-2.35.7,4.11,4.11,0,0,1-3.27-1.45c-1.28-1.48-1.61-3.84-1.61-9.17s.29-7.68,1.61-9.13a4.14,4.14,0,0,1,3.27-1.48,4,4,0,0,1,2.39.7,3.92,3.92,0,0,1,1.12,1.24v-1.61h2.27Zm-2.31-16.23a3.86,3.86,0,0,0-.95-2.89,2.87,2.87,0,0,0-2-.79,2.64,2.64,0,0,0-2,.95c-.95,1.08-1.07,3-1.07,7.64s.12,6.57,1.07,7.65a2.84,2.84,0,0,0,4,.16,4,4,0,0,0,.95-2.93Z"/><path class="cls-8" d="M284.75,262.37a2.42,2.42,0,1,1,2.41-2.42A2.41,2.41,0,0,1,284.75,262.37Z"/><path class="cls-8" d="M294.4,271.78V245.1l-4.21,3.63V246l4.21-3.6h2.31v29.41Z"/><path class="cls-8" d="M310.3,270.46a5,5,0,0,1-3.76,1.65,5.33,5.33,0,0,1-3.72-1.36,5.52,5.52,0,0,1-1.57-4.21V264.6h2.32v1.85c0,2.48,1.32,3.6,3,3.6a2.43,2.43,0,0,0,2-1c.74-1,1-2.19,1-6.49s-.33-5.49-1-6.53a2.39,2.39,0,0,0-2.07-1.07c-1.65,0-3,1.36-3,3.43v1.36h-2.15V242.37h10.12v2.07h-8v10.41a4.32,4.32,0,0,1,1.36-1.37,4.19,4.19,0,0,1,2.23-.57,4.11,4.11,0,0,1,3.34,1.61c1.16,1.36,1.49,3,1.49,8C312,267.12,311.66,268.93,310.3,270.46Z"/><path class="cls-8" d="M335.47,271.78V256c0-2.31-1.28-3.42-2.89-3.42s-2.93,1.11-2.93,3.42v15.82h-2.31V256c0-2.31-1.28-3.42-2.89-3.42s-2.94,1.11-2.94,3.42v15.82H319.2v-21h2.27v1.69a4.61,4.61,0,0,1,1.2-1.28,4.17,4.17,0,0,1,2.4-.74,4.86,4.86,0,0,1,3.92,2.23,5.42,5.42,0,0,1,1.45-1.49,4.63,4.63,0,0,1,2.51-.74,4.39,4.39,0,0,1,3.56,1.44c.82.87,1.28,2,1.28,4.13v15.78Z"/><path class="cls-8" d="M350.92,272.4c0,3.51-.37,5-1.56,6.32a5.61,5.61,0,0,1-7.56.13,5.84,5.84,0,0,1-1.45-4.42h2.27a4,4,0,0,0,.91,3,2.7,2.7,0,0,0,2,.79,2.63,2.63,0,0,0,2.07-.91c.79-.83,1-2.23,1-4.88v-2.68a4,4,0,0,1-1.11,1.2,3.93,3.93,0,0,1-2.36.7,4.11,4.11,0,0,1-3.26-1.45c-1.28-1.48-1.61-3.84-1.61-9.17s.29-7.68,1.61-9.13a4.13,4.13,0,0,1,3.26-1.48,4.06,4.06,0,0,1,2.4.7,3.89,3.89,0,0,1,1.11,1.24v-1.61h2.27Zm-2.31-16.23a3.86,3.86,0,0,0-.95-2.89,2.87,2.87,0,0,0-2-.79,2.62,2.62,0,0,0-2,.95c-1,1.08-1.08,3-1.08,7.64s.12,6.57,1.08,7.65a2.83,2.83,0,0,0,4,.16,4,4,0,0,0,.95-2.93Z"/><path class="cls-8" d="M355,274.84h-2.36l7.64-35.52h2.36Z"/><path class="cls-8" d="M368.1,271.78V245.1l-4.21,3.63V246l4.21-3.6h2.31v29.41Z"/><path class="cls-8" d="M384.08,270.67a5.5,5.5,0,0,1-3.76,1.44,5.38,5.38,0,0,1-3.72-1.44,5.47,5.47,0,0,1-1.49-4.17V247.66a5.47,5.47,0,0,1,1.49-4.17,5.39,5.39,0,0,1,3.72-1.45,5.06,5.06,0,0,1,5.24,5.62V266.5A5.46,5.46,0,0,1,384.08,270.67Zm-.83-23.13c0-2.32-1.32-3.43-2.93-3.43s-2.89,1.11-2.89,3.43v19.08c0,2.31,1.28,3.43,2.89,3.43s2.93-1.12,2.93-3.43Z"/><path class="cls-8" d="M409.41,271.78V256c0-2.31-1.28-3.42-2.89-3.42s-2.93,1.11-2.93,3.42v15.82h-2.32V256c0-2.31-1.28-3.42-2.89-3.42s-2.93,1.11-2.93,3.42v15.82h-2.32v-21h2.28v1.69a4.58,4.58,0,0,1,1.19-1.28,4.19,4.19,0,0,1,2.4-.74,4.85,4.85,0,0,1,3.92,2.23,5.57,5.57,0,0,1,1.45-1.49,4.67,4.67,0,0,1,2.52-.74,4.37,4.37,0,0,1,3.55,1.44c.83.87,1.28,2,1.28,4.13v15.78Z"/><path class="cls-8" d="M424.86,272.4c0,3.51-.37,5-1.57,6.32a5.61,5.61,0,0,1-7.56.13,5.88,5.88,0,0,1-1.45-4.42h2.28a4,4,0,0,0,.9,3,2.71,2.71,0,0,0,2,.79,2.6,2.6,0,0,0,2.06-.91c.79-.83,1-2.23,1-4.88v-2.68a3.86,3.86,0,0,1-1.11,1.2,3.9,3.9,0,0,1-2.35.7,4.11,4.11,0,0,1-3.27-1.45c-1.28-1.48-1.61-3.84-1.61-9.17s.29-7.68,1.61-9.13a4.14,4.14,0,0,1,3.27-1.48,3.83,3.83,0,0,1,3.51,1.94v-1.61h2.27Zm-2.32-16.23a3.86,3.86,0,0,0-1-2.89,2.83,2.83,0,0,0-2-.79,2.62,2.62,0,0,0-2,.95c-.95,1.08-1.08,3-1.08,7.64s.13,6.57,1.08,7.65a2.83,2.83,0,0,0,4,.16,4,4,0,0,0,1-2.93Z"/><path class="cls-8" d="M20.69,221.26c-1.31-1.2-2.08-2.9-2.08-5.7V180h3.07v35.56c0,3,1.48,4.72,4.55,4.72V223A7.66,7.66,0,0,1,20.69,221.26Z"/><path class="cls-8" d="M39.82,223v-2.8a5.25,5.25,0,0,1-1.53,1.84,4.87,4.87,0,0,1-3.35,1.19,5.67,5.67,0,0,1-4.44-2c-1-1.18-1.8-3.75-1.8-8,0-3.73.76-6.37,2.35-7.95a7,7,0,0,1,5.48-2.06h3.18v-5.05c0-3.07-1.26-4.77-3.84-4.77a3.49,3.49,0,0,0-2.52,1,5.15,5.15,0,0,0-1.26,3.89H29a7.77,7.77,0,0,1,2-5.75,6.67,6.67,0,0,1,4.82-1.87,6.66,6.66,0,0,1,5,1.76c1.26,1.31,1.92,3.07,1.92,5.81V223Zm-.11-17.16H36.64a4.31,4.31,0,0,0-3.4,1.33c-.93,1-1.48,3.29-1.48,5.93,0,4.75,1.21,7.35,3.89,7.35,2.47,0,4.06-2.37,4.06-5.59Z"/><path class="cls-8" d="M91.51,223v-2.8A5.25,5.25,0,0,1,90,222.06a4.86,4.86,0,0,1-3.34,1.19,5.64,5.64,0,0,1-4.44-2c-1-1.18-1.81-3.75-1.81-8,0-3.73.77-6.37,2.36-7.95a7,7,0,0,1,5.48-2.06H91.4v-5.05c0-3.07-1.26-4.77-3.83-4.77a3.45,3.45,0,0,0-2.52,1,5.11,5.11,0,0,0-1.26,3.89H80.72a7.77,7.77,0,0,1,2-5.75,7.53,7.53,0,0,1,9.81-.11c1.26,1.31,1.91,3.07,1.91,5.81V223Zm-.11-17.16H88.34a4.29,4.29,0,0,0-3.4,1.33c-.93,1-1.48,3.29-1.48,5.93,0,4.75,1.2,7.35,3.89,7.35,2.47,0,4.05-2.37,4.05-5.59Z"/><path class="cls-8" d="M180.93,223v-2.8a5.25,5.25,0,0,1-1.53,1.84,4.87,4.87,0,0,1-3.35,1.19,5.67,5.67,0,0,1-4.44-2c-1-1.18-1.8-3.75-1.8-8,0-3.73.76-6.37,2.35-7.95a7,7,0,0,1,5.48-2.06h3.18v-5.05c0-3.07-1.26-4.77-3.84-4.77a3.49,3.49,0,0,0-2.52,1,5.15,5.15,0,0,0-1.26,3.89h-3.06a7.76,7.76,0,0,1,2-5.75,7.53,7.53,0,0,1,9.81-.11c1.26,1.31,1.92,3.07,1.92,5.81V223Zm-.11-17.16h-3.07a4.32,4.32,0,0,0-3.4,1.33c-.93,1-1.48,3.29-1.48,5.93,0,4.75,1.21,7.35,3.9,7.35,2.46,0,4-2.37,4-5.59Z"/><path class="cls-8" d="M261.72,223v-2.8a5.25,5.25,0,0,1-1.53,1.84,4.86,4.86,0,0,1-3.34,1.19,5.64,5.64,0,0,1-4.44-2c-1-1.18-1.81-3.75-1.81-8,0-3.73.77-6.37,2.36-7.95a6.93,6.93,0,0,1,5.48-2.06h3.17v-5.05c0-3.07-1.26-4.77-3.83-4.77a3.45,3.45,0,0,0-2.52,1A5.11,5.11,0,0,0,254,198.3h-3.07a7.77,7.77,0,0,1,2-5.75,7.53,7.53,0,0,1,9.81-.11c1.26,1.31,1.91,3.07,1.91,5.81V223Zm-.11-17.16h-3.06a4.29,4.29,0,0,0-3.4,1.33c-.93,1-1.48,3.29-1.48,5.93,0,4.75,1.2,7.35,3.89,7.35,2.47,0,4.05-2.37,4.05-5.59Z"/><path class="cls-8" d="M403.86,223v-2.8a5.27,5.27,0,0,1-1.54,1.84,4.84,4.84,0,0,1-3.34,1.19,5.67,5.67,0,0,1-4.44-2c-1-1.18-1.81-3.75-1.81-8,0-3.73.77-6.37,2.36-7.95a7,7,0,0,1,5.48-2.06h3.18v-5.05c0-3.07-1.26-4.77-3.84-4.77a3.47,3.47,0,0,0-2.52,1,5.11,5.11,0,0,0-1.26,3.89h-3.07a7.77,7.77,0,0,1,2-5.75,7.53,7.53,0,0,1,9.81-.11c1.26,1.31,1.92,3.07,1.92,5.81V223Zm-.11-17.16h-3.07a4.29,4.29,0,0,0-3.4,1.33c-.93,1-1.48,3.29-1.48,5.93,0,4.75,1.21,7.35,3.89,7.35,2.47,0,4.06-2.37,4.06-5.59Z"/><path class="cls-8" d="M58.49,223V198c0-3.07-1.7-4.55-3.84-4.55S50.76,195,50.76,198v25H47.69v-31.9h3v2.25a5.91,5.91,0,0,1,1.59-1.7,5.49,5.49,0,0,1,3.18-1,5.76,5.76,0,0,1,4.38,1.92c1.1,1.15,1.7,2.69,1.7,5.48V223Z"/><path class="cls-8" d="M65,223V220.6l9.43-26.74H65.57v-2.74H77.79v2.41l-9.42,26.75h9.42V223Z"/><path class="cls-8" d="M111.5,221.48a5.24,5.24,0,0,1-4.33,2,5.35,5.35,0,0,1-3.18-.87,6.27,6.27,0,0,1-1.53-1.65v13.21H99.39v-43h3v2.25a5.54,5.54,0,0,1,4.77-2.69,5.55,5.55,0,0,1,4.33,2c1.7,2,2.08,7.48,2.08,14.44S113.2,219.51,111.5,221.48Zm-2.41-26.8a3.5,3.5,0,0,0-2.69-1.26,3.68,3.68,0,0,0-2.63,1.05,4.93,4.93,0,0,0-1.31,3.83v17.54a4.93,4.93,0,0,0,1.31,3.83,3.68,3.68,0,0,0,2.63,1,3.45,3.45,0,0,0,2.69-1.2c1.26-1.48,1.42-6.11,1.42-12.41S110.35,196.11,109.09,194.68Z"/><path class="cls-8" d="M117.48,184.71v-3.94h4v3.94Zm.44,38.31v-31.9H121V223Z"/><path class="cls-8" d="M136.83,223V198c0-3.07-1.7-4.55-3.84-4.55S129.1,195,129.1,198v25H126v-31.9h3v2.25a6,6,0,0,1,1.59-1.7,5.51,5.51,0,0,1,3.18-1,5.76,5.76,0,0,1,4.38,1.92c1.1,1.15,1.7,2.69,1.7,5.48V223Z"/><path class="cls-8" d="M147.22,208.08c0,5.7.17,9.75,1.43,11.23a3.66,3.66,0,0,0,2.79,1.4,3.81,3.81,0,0,0,2.85-1.09,5.7,5.7,0,0,0,1.21-4h3c0,2.69-.6,4.39-2,5.87a6.74,6.74,0,0,1-5,1.91,6.49,6.49,0,0,1-5-2.1c-1.81-2-2.25-6.28-2.25-14.25s.39-12.2,2.25-14.31a6.32,6.32,0,0,1,5-2.11,6.44,6.44,0,0,1,5,2c1.87,2,2.25,6.77,2.25,15.37Zm6.91-13.4a3.46,3.46,0,0,0-2.74-1.26,3.61,3.61,0,0,0-2.8,1.42c-1.09,1.31-1.31,5.95-1.37,10.78h8.33C155.48,199.56,155.24,196,154.13,194.68Z"/><path class="cls-8" d="M199.6,223V198c0-3.07-1.7-4.55-3.83-4.55s-3.89,1.48-3.89,4.55v25h-3.07v-31.9h3v2.25a6,6,0,0,1,1.59-1.7,5.51,5.51,0,0,1,3.18-1A5.76,5.76,0,0,1,201,192.6c1.1,1.15,1.7,2.69,1.7,5.48V223Z"/><path class="cls-8" d="M218.09,223v-2.25a5.13,5.13,0,0,1-1.53,1.7,5.2,5.2,0,0,1-3.18,1,5.55,5.55,0,0,1-4.33-2c-1.7-1.92-2.08-7.42-2.08-14.38s.38-12.42,2.08-14.44a5.28,5.28,0,0,1,4.33-2,5.59,5.59,0,0,1,3.18.88A7.37,7.37,0,0,1,218,193.2V180h3.07v43ZM218,198.3a5.11,5.11,0,0,0-1.26-3.83,3.83,3.83,0,0,0-2.69-1.05,3.48,3.48,0,0,0-2.63,1.26c-1.26,1.43-1.42,6.11-1.42,12.42s.16,10.93,1.42,12.41a3.43,3.43,0,0,0,2.63,1.2,3.82,3.82,0,0,0,2.69-1,5.11,5.11,0,0,0,1.26-3.83Z"/><path class="cls-8" d="M245.21,221.32a7.31,7.31,0,0,1-5.32,2.13,6.92,6.92,0,0,1-5.09-2,8.22,8.22,0,0,1-2.2-6h3.07a5.39,5.39,0,0,0,1.43,4.11,3.86,3.86,0,0,0,2.79,1.15,4.25,4.25,0,0,0,3.18-1.26c.82-.82,1.26-2.41,1.26-4.77a8.06,8.06,0,0,0-.77-3.69,7.26,7.26,0,0,0-2.79-2.41l-3.41-1.94a9.4,9.4,0,0,1-2.29-14,6.91,6.91,0,0,1,5-1.92,6.69,6.69,0,0,1,5,1.87c1.37,1.37,2,3.34,2,6H244c0-2.08-.33-3.12-1.2-4a3.62,3.62,0,0,0-2.74-1.1,3.92,3.92,0,0,0-2.91,1.05c-.88.82-1.2,2.65-1.2,4a6.3,6.3,0,0,0,3.12,5.77l3.45,2a9.46,9.46,0,0,1,3.78,3.29,11,11,0,0,1,1.1,5.06C247.4,218,246.52,220,245.21,221.32Z"/><path class="cls-8" d="M291.19,223V198c0-3.07-1.7-4.55-3.83-4.55s-3.9,1.48-3.9,4.55v25H280.4V198c0-3.07-1.7-4.55-3.84-4.55s-3.89,1.48-3.89,4.55v25H269.6v-31.9h3v2.25a6,6,0,0,1,1.59-1.7,5.51,5.51,0,0,1,3.18-1,6.47,6.47,0,0,1,5.21,3,7.21,7.21,0,0,1,1.92-2,6.17,6.17,0,0,1,3.34-1,5.83,5.83,0,0,1,4.71,1.92c1.1,1.15,1.7,2.69,1.7,5.48V223Z"/><path class="cls-8" d="M298.73,184.71v-3.94h3.94v3.94Zm.44,38.31v-31.9h3.07V223Z"/><path class="cls-8" d="M317.66,223v-2.25a5.13,5.13,0,0,1-1.53,1.7,5.2,5.2,0,0,1-3.18,1,5.55,5.55,0,0,1-4.33-2c-1.7-1.92-2.08-7.42-2.08-14.38s.38-12.42,2.08-14.44a5.28,5.28,0,0,1,4.33-2,5.59,5.59,0,0,1,3.18.88,7.37,7.37,0,0,1,1.48,1.64V180h3.07v43Zm-.05-24.72a5.11,5.11,0,0,0-1.26-3.83,3.81,3.81,0,0,0-2.69-1.05,3.48,3.48,0,0,0-2.63,1.26c-1.26,1.43-1.42,6.11-1.42,12.42s.16,10.93,1.42,12.41a3.43,3.43,0,0,0,2.63,1.2,3.8,3.8,0,0,0,2.69-1,5.11,5.11,0,0,0,1.26-3.83Z"/><path class="cls-8" d="M352.38,193.59A5.06,5.06,0,0,0,347,199v24h-3.07v-31.9h3v3a6.31,6.31,0,0,1,1.36-1.75,6.87,6.87,0,0,1,4.77-1.65v2.91Z"/><path class="cls-8" d="M368.53,221.48a5.93,5.93,0,0,1-7.51,1.1,6.46,6.46,0,0,1-1.54-1.65v13.21h-3.07v-43h3v2.25a5.54,5.54,0,0,1,4.77-2.69,5.57,5.57,0,0,1,4.33,2c1.69,2,2.08,7.48,2.08,14.44S370.22,219.51,368.53,221.48Zm-2.42-26.8a3.49,3.49,0,0,0-2.68-1.26,3.68,3.68,0,0,0-2.63,1.05,4.89,4.89,0,0,0-1.32,3.83v17.54a4.89,4.89,0,0,0,1.32,3.83,3.68,3.68,0,0,0,2.63,1,3.45,3.45,0,0,0,2.68-1.2c1.26-1.48,1.43-6.11,1.43-12.41S367.37,196.11,366.11,194.68Z"/><path class="cls-8" d="M385.81,223V198c0-3.07-1.7-4.55-3.84-4.55s-3.89,1.48-3.89,4.55v25H375V180h3.07v13.31a5.44,5.44,0,0,1,4.71-2.63,5.8,5.8,0,0,1,4.39,1.92c1.09,1.15,1.69,2.69,1.69,5.48V223Z"/><path class="cls-8" d="M422.53,223V198c0-3.07-1.7-4.55-3.84-4.55S414.8,195,414.8,198v25h-3.07v-31.9h3v2.25a5.91,5.91,0,0,1,1.59-1.7,5.46,5.46,0,0,1,3.17-1,5.77,5.77,0,0,1,4.39,1.92c1.09,1.15,1.7,2.69,1.7,5.48V223Z"/><path class="cls-8" d="M7.23,223.45a6.23,6.23,0,0,1-5.15-2.19C.38,219.23,0,213.67,0,207.1S.38,195,2.08,192.93a6.27,6.27,0,0,1,5.15-2.25,6.25,6.25,0,0,1,5.15,2.25c1.7,2,2.09,7.59,2.09,14.17s-.39,12.13-2.09,14.16A6.21,6.21,0,0,1,7.23,223.45Zm0-2.68A3.5,3.5,0,0,0,10,219.5c1.26-1.54,1.43-6.41,1.43-12.4s-.17-10.92-1.43-12.46a3.59,3.59,0,0,0-5.48,0c-1.26,1.54-1.42,6.46-1.42,12.46S3.23,218,4.49,219.5A3.53,3.53,0,0,0,7.23,220.77Z"/><path class="cls-8" d="M332.31,223.45a6.22,6.22,0,0,1-5.15-2.19c-1.7-2-2.08-7.59-2.08-14.16s.38-12.14,2.08-14.17a7,7,0,0,1,10.3,0c1.7,2,2.09,7.59,2.09,14.17s-.39,12.13-2.09,14.16A6.21,6.21,0,0,1,332.31,223.45Zm0-2.68a3.5,3.5,0,0,0,2.74-1.27c1.26-1.54,1.43-6.41,1.43-12.4s-.17-10.92-1.43-12.46a3.59,3.59,0,0,0-5.48,0c-1.26,1.54-1.42,6.46-1.42,12.46s.16,10.86,1.42,12.4A3.52,3.52,0,0,0,332.31,220.77Z"/><path class="cls-8" d="M103.21,319.34V317.4l7-16.11a15.29,15.29,0,0,0,1.41-6.2c0-2.31-1.29-3.43-2.9-3.43s-2.93,1.12-2.93,3.43v2.11H103.5v-2.07A5.4,5.4,0,0,1,105,291a5.46,5.46,0,0,1,3.75-1.44,5.25,5.25,0,0,1,3.68,1.4,5.57,5.57,0,0,1,1.53,4.21,18.52,18.52,0,0,1-1.7,6.82l-6.56,15.24H114v2.07Z"/><path class="cls-8" d="M125.62,318.22a5.49,5.49,0,0,1-3.76,1.45,5.36,5.36,0,0,1-3.71-1.45,5.47,5.47,0,0,1-1.49-4.17V295.21a5.47,5.47,0,0,1,1.49-4.17,5.35,5.35,0,0,1,3.71-1.44,5.06,5.06,0,0,1,5.25,5.61v18.84A5.47,5.47,0,0,1,125.62,318.22Zm-.82-23.13c0-2.31-1.33-3.43-2.94-3.43s-2.89,1.12-2.89,3.43v19.08c0,2.32,1.28,3.43,2.89,3.43s2.94-1.11,2.94-3.43Z"/><path class="cls-8" d="M151,319.34V303.52c0-2.32-1.28-3.43-2.89-3.43s-2.93,1.11-2.93,3.43v15.82h-2.31V303.52c0-2.32-1.28-3.43-2.89-3.43S137,301.2,137,303.52v15.82h-2.31v-21H137V300a4.35,4.35,0,0,1,1.2-1.28,4.1,4.1,0,0,1,2.4-.75,4.86,4.86,0,0,1,3.92,2.23,5.52,5.52,0,0,1,1.45-1.48,4.59,4.59,0,0,1,2.52-.75,4.39,4.39,0,0,1,3.55,1.45c.82.86,1.28,2,1.28,4.13v15.78Z"/><path class="cls-8" d="M166.4,320c0,3.51-.37,5-1.57,6.32a5.61,5.61,0,0,1-7.55.12,5.83,5.83,0,0,1-1.45-4.42h2.27a4,4,0,0,0,.91,3,2.74,2.74,0,0,0,2,.78,2.63,2.63,0,0,0,2.07-.91c.78-.82,1-2.23,1-4.87v-2.69a3.87,3.87,0,0,1-1.11,1.2,3.93,3.93,0,0,1-2.36.7,4.1,4.1,0,0,1-3.26-1.44c-1.28-1.49-1.61-3.84-1.61-9.17s.29-7.69,1.61-9.13a4.14,4.14,0,0,1,3.26-1.49,4.06,4.06,0,0,1,2.4.7,4.13,4.13,0,0,1,1.11,1.24v-1.61h2.27Zm-2.31-16.24a3.86,3.86,0,0,0-1-2.89,2.9,2.9,0,0,0-2-.78,2.62,2.62,0,0,0-2,.95c-.95,1.07-1.07,3-1.07,7.64s.12,6.57,1.07,7.64a2.59,2.59,0,0,0,2,.91,2.63,2.63,0,0,0,2-.74,4.05,4.05,0,0,0,1-2.94Z"/><path class="cls-8" d="M170.48,322.39h-2.36l7.64-35.52h2.36Z"/><path class="cls-8" d="M183.58,319.34V292.65l-4.21,3.64v-2.77l4.21-3.59h2.31v29.41Z"/><path class="cls-8" d="M199.56,318.22a5.51,5.51,0,0,1-3.76,1.45,5.39,5.39,0,0,1-3.72-1.45,5.47,5.47,0,0,1-1.49-4.17V295.21a5.47,5.47,0,0,1,1.49-4.17,5.38,5.38,0,0,1,3.72-1.44,5,5,0,0,1,5.24,5.61v18.84A5.5,5.5,0,0,1,199.56,318.22Zm-.83-23.13c0-2.31-1.32-3.43-2.93-3.43s-2.89,1.12-2.89,3.43v19.08c0,2.32,1.28,3.43,2.89,3.43s2.93-1.11,2.93-3.43Z"/><path class="cls-8" d="M224.89,319.34V303.52c0-2.32-1.28-3.43-2.89-3.43s-2.93,1.11-2.93,3.43v15.82h-2.32V303.52c0-2.32-1.28-3.43-2.89-3.43s-2.93,1.11-2.93,3.43v15.82h-2.31v-21h2.27V300a4.32,4.32,0,0,1,1.19-1.28,4.13,4.13,0,0,1,2.4-.75,4.88,4.88,0,0,1,3.93,2.23,5.49,5.49,0,0,1,1.44-1.48,4.59,4.59,0,0,1,2.52-.75,4.36,4.36,0,0,1,3.55,1.45c.83.86,1.28,2,1.28,4.13v15.78Z"/><path class="cls-8" d="M240.34,320c0,3.51-.37,5-1.57,6.32a5.62,5.62,0,0,1-7.56.12,5.87,5.87,0,0,1-1.45-4.42H232a4,4,0,0,0,.91,3,2.7,2.7,0,0,0,2,.78,2.6,2.6,0,0,0,2.06-.91c.79-.82,1-2.23,1-4.87v-2.69a3.91,3.91,0,0,1-3.47,1.9,4.1,4.1,0,0,1-3.27-1.44c-1.28-1.49-1.61-3.84-1.61-9.17s.29-7.69,1.61-9.13a4.15,4.15,0,0,1,3.27-1.49,3.83,3.83,0,0,1,3.51,1.94v-1.61h2.27ZM238,303.72a3.86,3.86,0,0,0-.95-2.89,2.91,2.91,0,0,0-2-.78,2.6,2.6,0,0,0-2,.95c-.95,1.07-1.08,3-1.08,7.64s.13,6.57,1.08,7.64a2.57,2.57,0,0,0,2,.91,2.66,2.66,0,0,0,2-.74,4.05,4.05,0,0,0,.95-2.94Z"/><path class="cls-8" d="M253.23,318a5.47,5.47,0,0,1-1.57-4.29V300.13H249.1v-1.82h2.56v-6.15H254v6.15h3.59v1.82H254v13.59c0,2.52,1.32,3.55,3.76,3.55v2.07C256,319.34,254.46,319.17,253.23,318Z"/><path class="cls-8" d="M267.31,319.34v-1.9a4.47,4.47,0,0,1-1.16,1.4,3.81,3.81,0,0,1-2.52.83,4.43,4.43,0,0,1-3.34-1.41c-.79-.82-1.36-2.48-1.36-4.75a6.2,6.2,0,0,1,1.77-4.75,5.56,5.56,0,0,1,4.13-1.4h2.4V303.6c0-2.31-1-3.59-2.89-3.59a2.6,2.6,0,0,0-1.9.78,3.86,3.86,0,0,0-.95,2.93h-2.32a5.82,5.82,0,0,1,1.53-4.33,5.7,5.7,0,0,1,7.4-.09,5.89,5.89,0,0,1,1.44,4.38v15.66Zm-.08-10.16h-2.32a3.44,3.44,0,0,0-2.56.9,5,5,0,0,0-1.11,3.39c0,2.52.91,4.13,2.93,4.13,1.86,0,3.06-1.61,3.06-3.8Z"/><path class="cls-8" d="M281.62,318.18a4.21,4.21,0,0,1-3.3,1.49A3.87,3.87,0,0,1,276,319a4.29,4.29,0,0,1-1.19-1.28v1.66h-2.28V289.93h2.32v10a4.88,4.88,0,0,1,1.15-1.24,3.93,3.93,0,0,1,2.36-.7,4.21,4.21,0,0,1,3.3,1.49c1.33,1.49,1.57,4,1.57,9.38S283,316.69,281.62,318.18ZM279.81,301a2.65,2.65,0,0,0-2-.95,2.81,2.81,0,0,0-2,.78,3.71,3.71,0,0,0-1,2.89v10.21a3.71,3.71,0,0,0,1,2.89,2.81,2.81,0,0,0,2,.78,2.62,2.62,0,0,0,2-.91c.95-1.11,1.07-3.14,1.07-7.84S280.76,302.07,279.81,301Z"/><path class="cls-8" d="M287.18,318a5.34,5.34,0,0,1-1.57-4.29V289.93h2.31v23.79c0,2.27,1.12,3.55,3.43,3.55v2.07A5.75,5.75,0,0,1,287.18,318Z"/><path class="cls-8" d="M294.75,309.18c0,4.29.12,6.4,1.07,7.47a2.75,2.75,0,0,0,2.11,1,2.91,2.91,0,0,0,2.15-.82,4.29,4.29,0,0,0,.9-3h2.28a5.77,5.77,0,0,1-1.53,4.42,5.08,5.08,0,0,1-3.8,1.45,5,5,0,0,1-3.8-1.53c-1.37-1.49-1.7-4.3-1.7-9.29s.29-7.81,1.7-9.34a5.39,5.39,0,0,1,7.52,0c1.4,1.53,1.69,4.3,1.69,9.67ZM300,301a2.57,2.57,0,0,0-2.06-.95,2.68,2.68,0,0,0-2.11.95c-.83.95-1,2.68-1,6.32H301C301,303.68,300.78,302,300,301Z"/><path class="cls-8" d="M308.41,318a5.51,5.51,0,0,1-1.57-4.29V300.13h-2.56v-1.82h2.56v-6.15h2.32v6.15h3.59v1.82h-3.59v13.59c0,2.52,1.32,3.55,3.75,3.55v2.07A6.15,6.15,0,0,1,308.41,318Z"/><path class="cls-8" d="M323.47,318.06a5.54,5.54,0,0,1-4,1.61,5.23,5.23,0,0,1-3.84-1.49,6.19,6.19,0,0,1-1.65-4.54h2.31a4.06,4.06,0,0,0,1.07,3.09,3,3,0,0,0,2.11.87,3.25,3.25,0,0,0,2.4-1,3.59,3.59,0,0,0,.95-2.6,4.15,4.15,0,0,0-.58-2.27,5.59,5.59,0,0,0-2.11-1.82l-2.64-1.45a7.45,7.45,0,0,1-2.73-2.47,5.83,5.83,0,0,1,1.08-6.61,5.2,5.2,0,0,1,3.75-1.45,5.05,5.05,0,0,1,3.76,1.41,6.07,6.07,0,0,1,1.53,4.54h-2.31a4,4,0,0,0-.91-3.06,2.7,2.7,0,0,0-2.07-.82,3,3,0,0,0-2.19.78,3.42,3.42,0,0,0-.9,2.48,3.6,3.6,0,0,0,.41,1.82,5.05,5.05,0,0,0,1.94,1.57l2.6,1.48a7.17,7.17,0,0,1,2.85,2.48,6.34,6.34,0,0,1,.83,3.31A5.77,5.77,0,0,1,323.47,318.06Z"/></svg>