<svg id="a0131146-0a13-432f-9074-02d6ec45824d" data-name="Layer 1" xmlns="http://www.w3.org/2000/svg" xmlns:xlink="http://www.w3.org/1999/xlink" width="218.28" height="159" viewBox="0 0 218.28 159"><defs><linearGradient id="f6191107-628c-4840-bc4e-ac030a74b866" x1="103.34" y1="87.69" x2="104.35" y2="87.73" gradientTransform="matrix(159.72, 0, 0, -33.53, -16475.1, 2957.77)" gradientUnits="userSpaceOnUse"><stop offset="0.01" stop-color="#8a4b21"/><stop offset="0.05" stop-color="#bb6a35"/><stop offset="0.06" stop-color="#cb743b"/><stop offset="0.06" stop-color="#ce7a44"/><stop offset="0.09" stop-color="#dd9c75"/><stop offset="0.11" stop-color="#e8b599"/><stop offset="0.13" stop-color="#efc4af"/><stop offset="0.14" stop-color="#f1c9b7"/><stop offset="0.16" stop-color="#efc5b2"/><stop offset="0.18" stop-color="#ebbaa2"/><stop offset="0.2" stop-color="#e3a889"/><stop offset="0.22" stop-color="#d88f66"/><stop offset="0.24" stop-color="#cd7643"/><stop offset="0.28" stop-color="#ac6332"/><stop offset="0.32" stop-color="#965626"/><stop offset="0.34" stop-color="#8e5122"/><stop offset="0.38" stop-color="#925425"/><stop offset="0.41" stop-color="#9f5c2d"/><stop offset="0.45" stop-color="#b36b3a"/><stop offset="0.47" stop-color="#ca7a49"/><stop offset="0.51" stop-color="#d99872"/><stop offset="0.56" stop-color="#e8b69c"/><stop offset="0.59" stop-color="#f2c8b6"/><stop offset="0.61" stop-color="#f5cfbf"/><stop offset="0.75" stop-color="#e49370"/><stop offset="0.85" stop-color="#c27045"/><stop offset="0.96" stop-color="#d4845c"/><stop offset="0.96" stop-color="#d4845d"/></linearGradient><linearGradient id="b69ad1c5-5d8c-4a65-ae26-a133095d6617" x1="103.33" y1="87.78" x2="104.31" y2="87.8" gradientTransform="matrix(157.96, 0, 0, -32.34, -16291.08, 2856.11)" xlink:href="#f6191107-628c-4840-bc4e-ac030a74b866"/><linearGradient id="e2f390e0-6f7f-4e3a-9465-372044b4bb54" x1="103.34" y1="87.7" x2="104.4" y2="87.74" gradientTransform="matrix(159.13, 0, 0, -33.34, -16412.93, 2941.5)" xlink:href="#f6191107-628c-4840-bc4e-ac030a74b866"/><linearGradient id="b923ca5d-6d7b-4f34-8b84-03c87b67b436" x1="104.38" y1="91.06" x2="103.37" y2="91.05" gradientTransform="matrix(125.58, 0, 0, -13.32, -12910.94, 1233.4)" gradientUnits="userSpaceOnUse"><stop offset="0.11" stop-color="#7cc7ef"/><stop offset="0.48" stop-color="#0091e6"/><stop offset="0.59" stop-color="#0288dc"/><stop offset="0.77" stop-color="#086fc2"/><stop offset="1" stop-color="#114797"/></linearGradient><linearGradient id="a488e98b-0f0f-4973-8a5a-9347f94d7391" x1="100.33" y1="89.25" x2="100.62" y2="88.87" gradientTransform="matrix(25.52, 0, 0, -21.53, -2518.64, 1953.72)" gradientUnits="userSpaceOnUse"><stop offset="0" stop-color="#975525"/><stop offset="0.14" stop-color="#9b5828"/><stop offset="0.29" stop-color="#a86131"/><stop offset="0.44" stop-color="#bc703f"/><stop offset="0.51" stop-color="#ca7a49"/><stop offset="0.61" stop-color="#d79168"/><stop offset="0.76" stop-color="#e8af92"/><stop offset="0.88" stop-color="#f3c2ac"/><stop offset="0.95" stop-color="#f7c9b5"/></linearGradient><linearGradient id="a9578133-17d6-4fca-9ec8-98d6ef24b4a3" x1="100.06" y1="89.38" x2="100.34" y2="89" gradientTransform="matrix(23.98, 0, 0, -20.78, -2358.82, 1889.11)" xlink:href="#a488e98b-0f0f-4973-8a5a-9347f94d7391"/><linearGradient id="b4c02a0b-d671-4c3a-b7c4-ec3954aff61a" x1="100.07" y1="89.35" x2="100.34" y2="88.86" gradientTransform="matrix(23.95, 0, 0, -21.15, -2354.45, 1920.76)" xlink:href="#a488e98b-0f0f-4973-8a5a-9347f94d7391"/></defs><g id="b1868ad1-9755-4bc8-b2e0-8e8d722fd65d" data-name="Weight-Gain---HTML Banners"><g id="b5b057b8-8114-4ccd-924f-c7b03f280464" data-name="112086_LYB-001716_300x600_1"><g id="a75a39e5-3017-440d-8ce2-5f6e2c854935" data-name="LYB Logo R KO RGB"><path id="e668c2c9-a586-4448-8aba-35e25b762470" data-name="Path" d="M191.66,0C145.34,0,99.82.64,54,18.71A60.18,60.18,0,0,0,31.94,33.53,54,54,0,0,1,45,27c33-12.58,76.56-13.32,125.58-13.32Z" fill="url(#f6191107-628c-4840-bc4e-ac030a74b866)"/><path id="f39f2a23-861e-49d1-bac6-167531cabced" data-name="Shape" d="M49.88,25.22l-.63.21c1.57-.84,3.24-1.65,5-2.39a216.72,216.72,0,0,1,34.23-11.2,265.38,265.38,0,0,1,34.18-5.77c20.71-2.19,40.94-2.35,63-2.19l-.16.1c-22-.17-42.16,0-62.81,2.19A267,267,0,0,0,88.5,11.94,217.93,217.93,0,0,0,54.28,23.13C52.75,23.8,51.3,24.5,49.88,25.22Zm4.41-3A217.93,217.93,0,0,1,88.51,11a265.21,265.21,0,0,1,34.17-5.76c21.09-2.23,41.69-2.35,64.2-2.17L187,3c-22.58-.2-43.23-.07-64.36,2.18a263.52,263.52,0,0,0-34.17,5.77A217.13,217.13,0,0,0,54.27,22.13a60.15,60.15,0,0,0-9,4.74l.46-.16a59.85,59.85,0,0,1,8.54-4.48ZM122.66,5.88a265.21,265.21,0,0,0-34.17,5.76,218.2,218.2,0,0,0-34.24,11.2,59.66,59.66,0,0,0-6,2.91l.56-.19a56.76,56.76,0,0,1,5.44-2.63A216.53,216.53,0,0,1,88.51,11.75,266.82,266.82,0,0,1,122.67,6c20.75-2.2,41-2.36,63.12-2.18l.16-.11C163.8,3.51,143.47,3.67,122.66,5.88Zm0-2.2A265.23,265.23,0,0,0,88.51,9.45,218.16,218.16,0,0,0,54.27,20.64a62.28,62.28,0,0,0-13.57,8l.39-.17a61.13,61.13,0,0,1,13.22-7.7A217.29,217.29,0,0,1,88.53,9.54a266.79,266.79,0,0,1,34.16-5.76c21.78-2.31,43.07-2.37,66.46-2.16l.16-.1C165.85,1.3,144.53,1.36,122.68,3.68ZM54.23,22.52A217.59,217.59,0,0,1,88.45,11.33a265.06,265.06,0,0,1,34.16-5.76c21-2.23,41.44-2.37,63.82-2.18l.16-.1c-22.43-.19-43,0-64,2.18a265.09,265.09,0,0,0-34.18,5.77A215.66,215.66,0,0,0,54.2,22.43a58.88,58.88,0,0,0-7.94,4.08l.49-.18a58.44,58.44,0,0,1,7.48-3.81ZM123,7.16a267.12,267.12,0,0,0-34.18,5.77,218.6,218.6,0,0,0-31,9.86l.79-.2A217.7,217.7,0,0,1,88.86,13,266.64,266.64,0,0,1,123,7.27c20-2.12,39.62-2.35,60.83-2.2L184,5C162.73,4.81,143.08,5,123,7.16Zm.06,1.65a265.21,265.21,0,0,0-34.17,5.76c-6.33,1.52-12.43,3.26-18.39,5.24l.82-.16c5.72-1.88,11.56-3.52,17.6-5a266.82,266.82,0,0,1,34.16-5.77c19.22-2,38-2.33,58.25-2.22l.17-.1C161.2,6.47,142.33,6.76,123.06,8.81ZM123,8.5a265.23,265.23,0,0,0-34.17,5.77C81.64,16,74.77,18,68,20.31l.84-.17c6.46-2.2,13.06-4.12,20-5.76A263.37,263.37,0,0,1,123,8.61c19.39-2.06,38.37-2.34,58.8-2.22L182,6.3C161.46,6.16,142.43,6.44,123,8.5Zm-.31-3.88A265.23,265.23,0,0,0,88.5,10.39a217.17,217.17,0,0,0-34.24,11.2,59.54,59.54,0,0,0-10.64,5.85L44,27.3A60.89,60.89,0,0,1,54.3,21.68,216.19,216.19,0,0,1,88.52,10.5a263.37,263.37,0,0,1,34.16-5.77c21.34-2.27,42.19-2.38,65-2.17l.16-.11c-22.9-.19-43.79-.09-65.19,2.18ZM123,9.7A267,267,0,0,0,88.8,15.47c-4,1-7.88,2-11.72,3.14l.88-.15c3.56-1,7.17-2,10.86-2.91A265.06,265.06,0,0,1,123,9.79c18.81-2,37.26-2.32,57-2.23l.17-.11C160.32,7.37,141.84,7.69,123,9.7Zm-34.47,3a265.06,265.06,0,0,1,34.16-5.76c20.33-2.16,40.2-2.36,61.77-2.2l.16-.11C163,4.42,143,4.62,122.65,6.79a265.36,265.36,0,0,0-34.18,5.76,216.72,216.72,0,0,0-34.23,11.2l-.79.34,1-.3A218.26,218.26,0,0,1,88.5,12.64ZM123,7.8c19.79-2.1,39.15-2.34,60.06-2.21l.16-.1c-21-.14-40.38.1-60.23,2.21a265.5,265.5,0,0,0-34.17,5.76,220.91,220.91,0,0,0-27.07,8.33l.79-.19a219.7,219.7,0,0,1,26.3-8A265.19,265.19,0,0,1,123,7.76Zm-68.71,11A62.58,62.58,0,0,0,35.49,31.3l.36-.22A62.84,62.84,0,0,1,54.32,18.91q5.91-2.47,11.91-4.6c-1.49.49-3,1-4.47,1.52q-3.75,1.41-7.47,3Zm-22,14.36.2-.24-.21.23ZM45.73,22.7c-.76.44-1.48.87-2.18,1.31a61.14,61.14,0,0,0-9.78,8.32l.34-.21A61.93,61.93,0,0,1,45.73,22.7Zm70.67-8.07,1.39-.08c2-.24,4-.48,6-.7a469.67,469.67,0,0,1,49.93-2.21l.16-.11a475.63,475.63,0,0,0-50.1,2.24C121.28,14,118.83,14.31,116.4,14.63ZM171.61,13l.17-.11c-11.51,0-22.65.29-33.77,1l2.32,0C150.63,13.24,161,13,171.61,13Zm.84-.54c-14.62,0-28.63.41-42.75,1.66l1.81,0c13.46-1.13,26.85-1.46,40.78-1.51Zm-48.65-.32c-8.71.93-16.85,2.16-24.73,3.72l1-.09c7.56-1.46,15.4-2.64,23.71-3.52C141.16,10.39,158.19,10,176.23,10l.16-.11C158.3,9.85,141.22,10.27,123.8,12.12Zm0,.92c-5.4.57-10.58,1.27-15.63,2.08l1.2-.09c4.67-.73,9.48-1.36,14.46-1.89a476.66,476.66,0,0,1,51-2.24l.16-.11A482.52,482.52,0,0,0,123.8,13Zm53.14-3.5.17-.11c-18.51,0-35.94.35-53.72,2.24a269.34,269.34,0,0,0-29.21,4.64l1-.09a270,270,0,0,1,28.26-4.45c17.72-1.89,35.09-2.28,53.54-2.24ZM122.69,3.08A267.12,267.12,0,0,0,88.51,8.85a216.72,216.72,0,0,0-34.23,11.2,62,62,0,0,0-15.35,9.4l.39-.19a61.34,61.34,0,0,1,15-9.11A215.44,215.44,0,0,1,88.56,9,264.49,264.49,0,0,1,122.7,3.19C144.76.85,166.3.81,190.05,1l.16-.1C166.4.7,144.81.74,122.69,3.08Zm.71,7.51a265.38,265.38,0,0,0-34.18,5.77c-1.38.33-2.76.68-4.13,1l1-.13,3.18-.8a267.27,267.27,0,0,1,34.17-5.77c18.24-1.94,36.11-2.29,55.17-2.23l.16-.11C159.63,8.29,141.71,8.65,123.4,10.59Zm-.34-2.53a265.38,265.38,0,0,0-34.18,5.77,222.75,222.75,0,0,0-24,7.17l.81-.17a217.7,217.7,0,0,1,23.17-6.9,265.06,265.06,0,0,1,34.16-5.76c19.58-2.08,38.72-2.35,59.4-2.22l.16-.11c-20.71-.12-39.92.14-59.56,2.22Zm.34,2.12A265.41,265.41,0,0,0,89.22,16c-2.45.58-4.87,1.21-7.25,1.87l.88-.13c2.12-.57,4.25-1.12,6.41-1.64a264.78,264.78,0,0,1,34.14-5.77c18.44-1.94,36.5-2.3,55.79-2.23l.16-.11C160,7.88,141.9,8.24,123.4,10.18Z" fill="url(#b69ad1c5-5d8c-4a65-ae26-a133095d6617)"/><path id="be82f7d2-35a5-4770-b080-42d86f129b6f" data-name="Shape" d="M56.33,23.23l-.93.26A217.11,217.11,0,0,1,88.48,12.77,265.53,265.53,0,0,1,122.65,7c20.27-2.15,40.1-2.35,61.59-2.2l-.16.11c-21.44-.16-41.2,0-61.42,2.2A265.08,265.08,0,0,0,88.5,12.88,217.6,217.6,0,0,0,56.33,23.23Zm-2,.15A217.59,217.59,0,0,1,88.51,12.19a265.08,265.08,0,0,1,34.16-5.77c20.54-2.18,40.62-2.36,62.46-2.19l.16-.11c-21.9-.17-42,0-62.63,2.18a265.26,265.26,0,0,0-34.17,5.78,217.17,217.17,0,0,0-34.24,11.2c-1.3.55-2.55,1.13-3.74,1.74l.74-.25C52.23,24.29,53.23,23.82,54.29,23.38ZM123,8c19.68-2.09,38.93-2.35,59.7-2.21l.17-.11C162,5.55,142.73,5.81,123,7.9a265.23,265.23,0,0,0-34.17,5.77,219.69,219.69,0,0,0-25.36,7.67l.93-.23a224,224,0,0,1,24.46-7.34A265.06,265.06,0,0,1,123,8Zm0-.62a265.23,265.23,0,0,0-34.17,5.77,218.67,218.67,0,0,0-29.27,9.17l.93-.24a219.55,219.55,0,0,1,28.36-8.83A265.06,265.06,0,0,1,123,7.5c19.92-2.12,39.41-2.35,60.49-2.21l.17-.11C162.51,5,143,5.27,123,7.39Zm-.34-1.28a265.53,265.53,0,0,0-34.17,5.77A216.68,216.68,0,0,0,54.26,23.07c-1.72.72-3.34,1.51-4.87,2.33l.64-.21q2-1.07,4.26-2A217.93,217.93,0,0,1,88.51,12a265.06,265.06,0,0,1,34.16-5.76C143.31,4,163.49,3.85,185.44,4l.16-.11C163.56,3.74,143.36,3.91,122.66,6.11Zm0-2.2A265.44,265.44,0,0,0,88.51,9.7,216.53,216.53,0,0,0,54.28,20.85a61.41,61.41,0,0,0-12.87,7.46l.4-.18A60.61,60.61,0,0,1,54.31,21,216.87,216.87,0,0,1,88.56,9.78,265.06,265.06,0,0,1,122.72,4c21.68-2.31,42.85-2.38,66.1-2.17l.16-.1C165.63,1.53,144.42,1.6,122.69,3.91Zm-45.26,7q-2.91.79-5.76,1.66C65.77,14.48,60,16.62,54.3,19A62.38,62.38,0,0,0,36.1,31l.37-.21A62.28,62.28,0,0,1,54.33,19.13a215,215,0,0,1,23.1-8.22Zm45.57-1a265.38,265.38,0,0,0-34.18,5.77q-5,1.2-9.87,2.6l.78-.11q4.48-1.27,9.11-2.38A263.37,263.37,0,0,1,123,10.05c18.71-2,37-2.31,56.62-2.23l.16-.11c-19.68-.11-38.05.22-56.8,2.21Zm.09-.89A265.48,265.48,0,0,0,88.9,14.8c-5.71,1.37-11.23,2.91-16.64,4.67l.85-.16c5.14-1.64,10.39-3.1,15.8-4.4a265.08,265.08,0,0,1,34.16-5.77c19.11-2,37.82-2.33,57.9-2.22l.16-.11C161,6.71,142.23,7,123.07,9ZM54.3,22.46A216.56,216.56,0,0,1,88.52,11.27,266.82,266.82,0,0,1,122.68,5.5c21-2.23,41.47-2.37,63.85-2.18l.17-.1c-22.45-.19-43-.06-64,2.18A265.18,265.18,0,0,0,88.5,11.15,218.24,218.24,0,0,0,54.26,22.36a59.56,59.56,0,0,0-8.09,4.19l.48-.19a59.17,59.17,0,0,1,7.65-3.9ZM34.87,30.6c-.65.59-1.18,1.11-1.62,1.54-.67.74-1,1.18-1,1.2h0l.29-.19C32.85,32.72,33.66,31.81,34.87,30.6ZM122.68,4.85A265.38,265.38,0,0,0,88.5,10.62a217.75,217.75,0,0,0-34.23,11.2,60,60,0,0,0-9.94,5.38l.37-.12a59.54,59.54,0,0,1,9.6-5.16A217.93,217.93,0,0,1,88.52,10.73,265.21,265.21,0,0,1,122.69,5c21.23-2.26,42-2.38,64.66-2.18l.16-.1C164.75,2.49,144,2.6,122.68,4.85ZM123,8.73A267.12,267.12,0,0,0,88.81,14.5c-6.56,1.57-12.87,3.4-19,5.46l.82-.16c5.92-1.94,12-3.69,18.25-5.2A265.21,265.21,0,0,1,123,8.84c19.27-2,38.14-2.34,58.43-2.22l.17-.11c-20.36-.11-39.28.17-58.61,2.22ZM34.32,32l.35-.21A63.35,63.35,0,0,1,50.4,20.28q-1.29.57-2.49,1.23A63,63,0,0,0,34.32,32ZM188.19,0l3.14,0V0ZM123.07,8.29A266.68,266.68,0,0,0,88.9,14.06a221.15,221.15,0,0,0-22.31,6.58l.83-.19a223.87,223.87,0,0,1,21.49-6.3,265.08,265.08,0,0,1,34.16-5.77c19.47-2.07,38.52-2.34,59-2.22l.17-.1C161.69,6,142.59,6.22,123.07,8.29Zm-.38-5A267,267,0,0,0,88.52,9.08a216.83,216.83,0,0,0-34.24,11.2A61.41,61.41,0,0,0,39.62,29.1l.4-.18a61.26,61.26,0,0,1,14.29-8.55A216.87,216.87,0,0,1,88.56,9.19a263.37,263.37,0,0,1,34.16-5.77c21.94-2.33,43.37-2.38,67-2.15l.15-.11C166.19.94,144.69,1,122.69,3.31Zm0,0A265.23,265.23,0,0,0,88.52,9.08,218.16,218.16,0,0,0,54.28,20.27a61.85,61.85,0,0,0-14.66,8.85l.4-.19a61.64,61.64,0,0,1,14.29-8.56A217.83,217.83,0,0,1,88.56,9.21a265.06,265.06,0,0,1,34.16-5.76c21.94-2.34,43.37-2.39,67-2.17l.15-.1C166.19,1,144.69,1,122.69,3.33Zm48.57,9.9.16-.11c-9.48,0-18.71.22-27.88.7l3,0C154.66,13.4,162.86,13.24,171.26,13.21Zm-47.45-.86c-7.9.84-15.36,1.94-22.57,3.29l1-.09c6.89-1.27,14-2.3,21.55-3.1,17.25-1.83,34.17-2.25,52.07-2.24l.17-.1c-18,0-34.94.4-52.24,2.24Zm0,0c-7.9.84-15.36,1.94-22.57,3.29l1-.09c6.89-1.27,14-2.3,21.55-3.1a488.09,488.09,0,0,1,52.07-2.24l.17-.1c-18,0-34.94.41-52.24,2.25Zm0,.9c-4.52.48-8.9,1-13.18,1.69l1.28-.08q5.81-.86,11.9-1.51a480.87,480.87,0,0,1,50.67-2.24l.17-.11a484,484,0,0,0-50.85,2.26ZM54.23,22.76a216.72,216.72,0,0,1,34.23-11.2,266.59,266.59,0,0,1,34.15-5.74c20.87-2.21,41.24-2.37,63.47-2.18l.16-.11c-22.29-.18-42.72,0-63.63,2.18a266.68,266.68,0,0,0-34.17,5.77A217.75,217.75,0,0,0,54.2,22.65a57.79,57.79,0,0,0-6.94,3.5l.56-.21a57,57,0,0,1,6.41-3.18ZM123.79,14q-2.28.24-4.5.51l1.54-.07,3-.34a473.93,473.93,0,0,1,49.56-2.24l.17-.1A474.41,474.41,0,0,0,123.79,14Zm48.31-1.32C159,12.7,146.45,13,133.84,14l2-.05c11.88-.85,23.75-1.13,36.05-1.17Zm4.49-2.91.16-.1c-18.39,0-35.69.36-53.35,2.23-9.6,1-18.55,2.43-27.18,4.21l1-.09c8.34-1.71,17-3,26.23-4,17.59-1.86,34.85-2.26,53.17-2.23Zm-53.19.67a265.21,265.21,0,0,0-34.17,5.76c-1.85.45-3.67.92-5.48,1.4l.82-.12q2.33-.6,4.68-1.17a266.82,266.82,0,0,1,34.16-5.77c18.32-1.94,36.29-2.3,55.43-2.23l.17-.11C159.8,8.11,141.79,8.46,123.4,10.42Zm0,.4a265.08,265.08,0,0,0-34.16,5.77c-.73.17-1.45.36-2.18.54l.87-.11,1.33-.33a264.76,264.76,0,0,1,34.14-5.76c18.13-1.94,35.89-2.3,54.82-2.24l.16-.11C159.41,8.53,141.59,8.89,123.4,10.82Z" fill="url(#e2f390e0-6f7f-4e3a-9465-372044b4bb54)"/><path id="b70c7603-8968-4528-9700-e99a5e1d17be" data-name="Path" d="M151.53,26.25c-40.68-4.46-77-6.71-106.53.72,33-12.58,76.56-13.32,125.58-13.32Z" fill="url(#b923ca5d-6d7b-4f34-8b84-03c87b67b436)"/><path id="b8dc7d63-2f5f-492f-b39b-1f0029aac618" data-name="Path" d="M31.75,41.25l6.81,8.49S53.82,31.88,56.83,28.21c-5.74,0-22.57,2.91-25.2,9.85C30.84,40.17,31.75,41.25,31.75,41.25Z" fill="url(#a488e98b-0f0f-4973-8a5a-9347f94d7391)"/><path id="b08b8b71-4674-4247-8206-67eeb78a320c" data-name="Shape" d="M43.67,43.75l-.08.09c-3.23-4.18-5.58-8.64-4-12.12l.17-.06C38.09,35.09,40.44,39.55,43.67,43.75Zm-4.16-12-.18.07c-1.7,3.51.72,8.05,4,12.29l.08-.09c-3.29-4.27-5.7-8.81-3.91-12.27Zm-1.14.49-.18.08c-1.9,3.64.78,8.42,4.27,12.83l.08-.1c-3.5-4.42-6.16-9.22-4.17-12.81Zm-.88.42-.19.1c-1.87,3.71,1,8.61,4.56,13.09l.09-.09c-3.61-4.5-6.46-9.41-4.46-13.1Zm3.58-1.51-.16,0c-1.25,3.3.83,7.41,3.77,11.34,0,0,.06-.07.08-.09-2.94-3.93-5-8-3.69-11.29Zm-.83.31-.15.05c-1.45,3.4.77,7.76,3.9,11.84l.08-.09c-3.13-4.1-5.36-8.43-3.83-11.8Zm2.85-1-.14,0c-.87,3,.82,6.61,3.33,10.14,0,0,.06-.06.08-.1-2.51-3.52-4.17-7.13-3.27-10.08Zm-1,.31-.14,0c-1,3.15.84,7,3.56,10.71l.08-.09C42.89,37.76,41,34,42.1,30.82Zm-.63.22-.16.05c-1.16,3.23.82,7.22,3.67,11.1,0,0,.06-.06.09-.09C42.24,38.23,40.26,34.23,41.49,31Zm-9.15,5.69c-.07.1-.13.2-.19.3-.38,2.33.68,5,2.35,7.65l.83,1C33.17,42.58,31.74,39.41,32.34,36.73Zm1.21-1.4-.21.21c-1.4,3.93,2,9.08,5.78,13.53L39.2,49c-3.81-4.53-7.26-9.74-5.65-13.65Zm-1.49,6.31.26.32a9.43,9.43,0,0,1-.81-3.54,2.73,2.73,0,0,0-.1.41,9.74,9.74,0,0,0,.65,2.81Zm5-8.73-.2.1c-2,3.76.89,8.79,4.59,13.35a.61.61,0,0,0,.07-.1c-3.69-4.55-6.65-9.63-4.46-13.35Zm-3,1.94-.21.17c-1.66,3.93,1.74,9.14,5.55,13.69,0,0,0-.06.08-.09-3.86-4.59-7.28-9.86-5.42-13.76ZM36,33.51l-.2.12c-2,3.85,1.16,9,4.93,13.58l.08-.09c-3.8-4.62-7-9.78-4.81-13.6Zm-1.45,1-.23.19c-1.84,3.95,1.52,9.19,5.36,13.79,0,0,.06-.06.08-.1-3.88-4.65-7.27-10-5.21-13.85Zm1.14-.79-.2.14c-2,3.88,1.18,9.06,5,13.68l.08-.09c-3.84-4.63-7.07-9.88-4.86-13.7Zm10-3.92-.13,0c-.25,2.53,1,5.4,2.93,8.25l.08-.09c-1.9-2.81-3.15-5.66-2.88-8.17Zm3.24-.67-.12,0a13.86,13.86,0,0,0,2.22,6l.08-.09A13.9,13.9,0,0,1,48.94,29.1Zm3.29-.52h-.11a13.46,13.46,0,0,0,1.33,3.67l.08-.1a13.9,13.9,0,0,1-1.3-3.59Zm-1.06.15h-.12a14,14,0,0,0,1.62,4.43l.09-.1a13.55,13.55,0,0,1-1.59-4.35Zm-1.3.2h-.12a13.44,13.44,0,0,0,1.94,5.41.39.39,0,0,1,.08-.1,13.19,13.19,0,0,1-1.9-5.32Zm.72-.12h-.11a13.75,13.75,0,0,0,1.77,4.85l.08-.09a13.84,13.84,0,0,1-1.74-4.77Zm2.06-.29h-.12a14,14,0,0,0,1.22,3.37l.09-.1a13.29,13.29,0,0,1-1.19-3.28Zm-9.28,1.9-.14,0c-.75,2.94.89,6.45,3.33,9.89l.08-.1C44.21,36.86,42.58,33.34,43.37,30.42Zm10.34-2h-.12a14.34,14.34,0,0,0,.94,2.54l.08-.1a14.85,14.85,0,0,1-.9-2.44Zm1.06-.1h-.12a14.08,14.08,0,0,0,.66,1.78l.08-.11a12.3,12.3,0,0,1-.6-1.67ZM45,30l-.12,0c-.35,2.65,1,5.7,3.08,8.73l.08-.09C46,35.61,44.64,32.59,45,30Zm3.5-.8-.12,0a13.68,13.68,0,0,0,2.28,6.34l.08-.1a13.42,13.42,0,0,1-2.24-6.27Zm-4.3,1-.13,0c-.64,2.82.85,6.15,3.11,9.41l.08-.09c-2.26-3.27-3.71-6.56-3-9.35Zm.45-.13-.13,0c-.49,2.73.92,5.9,3.07,9l.09-.09c-2.14-3.13-3.54-6.28-3-9Zm2-.48-.13,0c-.17,2.37,1,5,2.67,7.69l.08-.1c-1.7-2.64-2.78-5.28-2.62-7.62Zm1.35-.3-.13,0a13.5,13.5,0,0,0,2.38,6.75l.08-.1A13.21,13.21,0,0,1,48,29.28Zm-.93.2-.12,0c-.12,2.29,1,4.85,2.57,7.4l.09-.09C48,34.26,46.94,31.74,47,29.48Z" fill="url(#a9578133-17d6-4fca-9ec8-98d6ef24b4a3)"/><path id="b79a5e74-a102-462b-930d-54f508a13ee0" data-name="Shape" d="M44.09,43.26l-.08.09c-3.12-4.07-5.37-8.43-3.89-11.83l.15-.06C38.71,34.83,41,39.16,44.09,43.26ZM38.87,32l-.18.08c-1.77,3.58.79,8.25,4.19,12.56l.08-.09C39.55,40.25,37,35.57,38.87,32ZM40,31.56l-.17.06c-1.57,3.44.74,7.86,3.93,12l.08-.09c-3.19-4.14-5.5-8.55-3.84-12Zm2.61-.92-.14,0c-.91,3.07.87,6.79,3.48,10.38,0,0,0-.06.08-.1-2.6-3.57-4.36-7.27-3.42-10.3Zm-.63.2-.14.05c-1.05,3.16.85,7,3.59,10.77l.08-.09C42.77,37.85,40.89,34,42,30.86Zm1.61-.48-.14,0c-.74,2.91.85,6.4,3.25,9.8l.08-.1c-2.39-3.39-4-6.84-3.19-9.73Zm-2,.64-.15.05c-1.13,3.22.86,7.2,3.69,11l.08-.1c-2.83-3.81-4.8-7.78-3.62-11Zm-.82.29-.16.06c-1.34,3.34.81,7.54,3.83,11.53l.08-.09c-3-4-5.16-8.19-3.75-11.49ZM38,32.43l-.19.09c-1.79,3.66,1,8.46,4.46,12.86l.08-.1C38.84,40.87,36.1,36.05,38,32.44Zm-5,3.4-.19.21c-1.14,3.94,2.29,9,6,13.35,0,0,.05-.06.08-.09C35.17,44.89,31.7,39.77,33,35.85Zm1.18-1.11-.21.17c-1.67,3.93,1.73,9.14,5.53,13.68l.08-.1c-3.84-4.56-7.28-9.83-5.4-13.73Zm.53-.4-.23.16c-1.85,3.92,1.5,9.14,5.33,13.73l.07-.09c-3.86-4.62-7.23-9.9-5.17-13.78ZM32.15,37l-.16.28c-.25,2,.53,4.25,1.83,6.53l.54.7c-1.61-2.61-2.62-5.23-2.21-7.49Zm3-3-.22.16c-2,3.88,1.31,9.14,5.14,13.76l.08-.09c-3.85-4.65-7.19-10-5-13.8Zm1.39-.86-.2.12c-2,3.82,1.07,8.9,4.8,13.46l.09-.1C37.45,42.06,34.4,37,36.53,33.2Zm1.06-.55-.19.09c-2,3.7.85,8.64,4.46,13.14l.08-.1c-3.62-4.49-6.47-9.45-4.35-13.11Zm-1.36.73-.2.11c-2.06,3.83,1.06,9,4.84,13.58L41,47c-3.8-4.62-6.94-9.8-4.72-13.58Zm14.94-4.66h-.12a14,14,0,0,0,1.64,4.42l.08-.1a13.78,13.78,0,0,1-1.6-4.3Zm.61-.08h-.12a14.16,14.16,0,0,0,1.45,4l.09-.11a13.52,13.52,0,0,1-1.42-3.9Zm1.07-.13h-.12a14.13,14.13,0,0,0,1.18,3.22l.09-.1a13.26,13.26,0,0,1-1.17-3.11Zm-3.77.58H49A13.87,13.87,0,0,0,51.12,35l.07-.1a13.22,13.22,0,0,1-2.13-5.83Zm.45-.09-.12,0a14.16,14.16,0,0,0,2.08,5.57l.09-.1A13.74,13.74,0,0,1,49.51,29Zm.93-.16h-.11a13.52,13.52,0,0,0,1.78,5l.08-.09a13.52,13.52,0,0,1-1.77-4.88Zm5-.56h-.12a11.82,11.82,0,0,0,.49,1.24l.08-.1a7,7,0,0,1-.47-1.13Zm-1.07.07h-.12A13.47,13.47,0,0,0,55,30.39l.09-.1a13.65,13.65,0,0,1-.75-2Zm-1.1.11h-.12a14.27,14.27,0,0,0,1.06,2.91l.09-.1a13.37,13.37,0,0,1-1.07-2.8Zm-9.39,1.85-.13,0c-.64,2.86.91,6.23,3.23,9.54,0,0,.06-.06.08-.09C44.75,36.47,43.21,33.11,43.88,30.28Zm1.29-.35L45,30c-.39,2.64,1,5.67,3,8.68l.08-.09C46.08,35.55,44.75,32.53,45.17,29.93Zm-.45.12-.13,0c-.53,2.73.87,5.91,3,9.05l.09-.09c-2.14-3.15-3.53-6.3-3-9Zm.82-.21-.13,0c-.26,2.55,1.05,5.46,3,8.34l.08-.09C46.54,35.24,45.26,32.36,45.54,29.84Zm3-.67h-.12a13.32,13.32,0,0,0,2.25,6.35s.05-.06.08-.1A13,13,0,0,1,48.53,29.17Zm-1,.19-.12,0c0,2.18,1,4.58,2.47,7,0,0,.05-.06.08-.1a13.35,13.35,0,0,1-2.41-6.94Zm-.42.09-.12,0c-.1,2.26,1,4.78,2.55,7.31l.08-.1c-1.56-2.51-2.6-5-2.49-7.24Zm-.94.22-.12,0c-.17,2.42,1,5.16,2.82,7.88l.08-.1c-1.75-2.7-2.94-5.41-2.76-7.81Z" fill="url(#b4c02a0b-d671-4c3a-b7c4-ec3954aff61a)"/><polygon id="be37bb53-9a0c-4daa-94ec-e993c792cd2f" data-name="Path" points="7.15 73.74 7.15 48.08 0 48.08 0 80.28 25.89 80.28 25.89 73.74 7.15 73.74" fill="#fff"/><path id="b4d8a328-48ac-4f2e-a022-3d3098a0d984" data-name="Path" d="M47.31,48.08l-6.18,9.59a33.51,33.51,0,0,0-2.55,4.81A33.57,33.57,0,0,0,36,57.67l-6.27-9.59H21.49L35,69V80.29h7.15V69L55.65,48.08Z" fill="#fff"/><path id="a60fbb6b-453e-48f0-bb45-25914c098cc8" data-name="Shape" d="M87.85,63.73a7.77,7.77,0,0,0,2.47-5.82c0-5.89-3.95-9.85-9.82-9.85H59.43V80.27H81.75c5.87,0,9.82-4,9.82-9.84a7.55,7.55,0,0,0-3.72-6.72m-3.43,6.4v.94a2.48,2.48,0,0,1-.73,2,2.51,2.51,0,0,1-1.94.73H66.59V67.42H81.75a2.51,2.51,0,0,1,1.94.73,2.54,2.54,0,0,1,.73,1.95M66.59,60.89V54.58H80.5a2.51,2.51,0,0,1,2.67,2.68v.93a2.51,2.51,0,0,1-2.67,2.68Z" fill="#fff"/><path id="f7e4b389-b956-45a4-806f-874c210e84c6" data-name="Shape" d="M117.11,48.08h-10L94,80.29h7.6L104.11,74H120l2.57,6.27h7.74Zm.21,19.4H106.8l5.25-12.87Z" fill="#fff"/><polygon id="a7da22c6-d2e6-4119-9417-e4ea1b64b07b" data-name="Path" points="141.71 73.74 141.71 48.08 134.56 48.08 134.56 80.28 160.45 80.28 160.45 73.74 141.71 73.74" fill="#fff"/><polygon id="a6dbf246-7e86-43cb-80d3-e1cdd282b8fa" data-name="Path" points="186.93 48.08 176.44 73.74 165.93 48.08 158.2 48.08 171.37 80.28 181.35 80.28 194.53 48.08 186.93 48.08" fill="#fff"/><rect id="e42aeb90-0571-4548-bed6-95422b7fc398" data-name="Rectangle" x="198.8" y="48.08" width="7.15" height="32.21" fill="#fff"/><path id="bb23b7f3-6b1d-48cd-9dc8-38ce89a081e9" data-name="Shape" d="M214.38,48.08a3.91,3.91,0,1,1-3.91,3.9,3.9,3.9,0,0,1,3.91-3.9Zm0,7.15A3.24,3.24,0,1,0,211.15,52a3.24,3.24,0,0,0,3.23,3.25ZM212.92,54v-4h1.49c1.11,0,1.5.66,1.5,1.21a1.15,1.15,0,0,1-.88,1.18L216.11,54h-.77l-1-1.57h-.82v1.55Zm1.4-2.12c.69,0,1-.25,1-.68s-.25-.65-.91-.65h-.82v1.33Z" fill="#fff"/><path id="fdad6211-620a-4a91-bfa0-aab93ac91887" data-name="Path" d="M5.56,131.17a2.4,2.4,0,0,1-1.82.8,2.53,2.53,0,0,1-1.8-.66,2.63,2.63,0,0,1-.76-2v-.94H2.3v.9c0,1.2.64,1.74,1.45,1.74a1.17,1.17,0,0,0,1-.48c.36-.49.48-1.07.48-3.15s-.16-2.66-.48-3.17a1.17,1.17,0,0,0-1-.52,1.53,1.53,0,0,0-1.46,1.67V126h-1v-8.43h4.9v1H2.28v5a2.08,2.08,0,0,1,.66-.66A2.05,2.05,0,0,1,4,122.66a2,2,0,0,1,1.62.78c.56.66.72,1.45.72,3.88C6.36,129.55,6.22,130.43,5.56,131.17Z" fill="#fff"/><path id="b2d42bb7-daac-443f-b4d4-6fa72e1c4ec1" data-name="Path" d="M17.74,131.81v-7.65c0-1.12-.62-1.66-1.4-1.66s-1.42.54-1.42,1.66v7.67H13.8v-7.67c0-1.12-.62-1.66-1.4-1.66S11,123,11,124.16v7.67H9.87V121.65H11v.81a2.14,2.14,0,0,1,.58-.62,2,2,0,0,1,1.15-.35,2.32,2.32,0,0,1,1.9,1.08,2.7,2.7,0,0,1,.7-.73,2.3,2.3,0,0,1,1.22-.35,2.12,2.12,0,0,1,1.72.69,2.66,2.66,0,0,1,.62,2v7.65Z" fill="#fff"/><path id="bffb840a-36b8-48d6-963c-828b235ea813" data-name="Shape" d="M25.22,132.11c0,1.7-.18,2.43-.76,3.07a2.72,2.72,0,0,1-3.66.06,2.84,2.84,0,0,1-.7-2.14h1.1a1.91,1.91,0,0,0,.44,1.45,1.27,1.27,0,0,0,1,.38,1.25,1.25,0,0,0,1-.44c.38-.4.48-1.08.48-2.36v-1.3a2,2,0,0,1-.54.58,1.93,1.93,0,0,1-1.14.34,2,2,0,0,1-1.58-.71c-.62-.71-.78-1.86-.78-4.44s.14-3.73.78-4.43a2.12,2.12,0,0,1,2.74-.38,1.94,1.94,0,0,1,.54.6v-.78h1.1Zm-1.12-7.87a1.88,1.88,0,0,0-.46-1.4,1.4,1.4,0,0,0-1-.39,1.31,1.31,0,0,0-1,.47c-.48.52-.51,1.45-.51,3.7s0,3.19.51,3.71a1.37,1.37,0,0,0,1.94.08,1.93,1.93,0,0,0,.46-1.4Z" fill="#fff"/><polygon id="b34d6129-0587-40ca-81ae-676f6cb99ec0" data-name="Path" points="27.19 133.29 26.05 133.29 29.75 116.07 30.88 116.07 27.19 133.29" fill="#fff"/><polygon id="ae0bc193-d1e4-437b-83ed-404a3d1c8f2e" data-name="Path" points="33.53 131.81 33.53 118.87 31.49 120.63 31.49 119.31 33.53 117.56 34.65 117.56 34.65 131.82 33.53 131.81" fill="#fff"/><path id="be5a87a2-e449-4016-b36b-11dd652a652f" data-name="Shape" d="M41.26,131.27a2.63,2.63,0,0,1-1.82.7,2.56,2.56,0,0,1-1.8-.7,2.69,2.69,0,0,1-.72-2v-9.14a2.69,2.69,0,0,1,.72-2,2.61,2.61,0,0,1,1.8-.72A2.46,2.46,0,0,1,42,120.09v9.16a2.68,2.68,0,0,1-.72,2Zm-.4-11.22c0-1.12-.64-1.66-1.42-1.66s-1.4.54-1.4,1.66v9.26c0,1.12.62,1.66,1.4,1.66s1.42-.54,1.42-1.66Z" fill="#fff"/><path id="ac8a1cf3-6255-410a-b6c8-7e53853417bd" data-name="Path" d="M53.52,131.81v-7.65c0-1.12-.62-1.66-1.4-1.66s-1.42.54-1.42,1.66v7.67H49.58v-7.67c0-1.12-.62-1.66-1.4-1.66s-1.42.54-1.42,1.66v7.67H45.64V121.65h1.1v.81a2.28,2.28,0,0,1,.58-.62,2,2,0,0,1,1.16-.35,2.34,2.34,0,0,1,1.9,1.08,2.7,2.7,0,0,1,.7-.73,2.25,2.25,0,0,1,1.22-.35,2.12,2.12,0,0,1,1.72.69,2.66,2.66,0,0,1,.62,2v7.65Z" fill="#fff"/><path id="a0a4acda-b746-4f4d-b992-63b75c36bea9" data-name="Shape" d="M61,132.11c0,1.7-.18,2.43-.76,3.07a2.51,2.51,0,0,1-1.81.74,2.56,2.56,0,0,1-1.84-.68,2.84,2.84,0,0,1-.7-2.14H57a1.91,1.91,0,0,0,.44,1.45,1.25,1.25,0,0,0,1,.38,1.28,1.28,0,0,0,1-.44c.37-.4.48-1.08.48-2.36v-1.3a1.88,1.88,0,0,1-1.68.92,2,2,0,0,1-1.58-.71c-.62-.71-.78-1.86-.78-4.44s.15-3.73.78-4.43a2.12,2.12,0,0,1,2.74-.38,1.93,1.93,0,0,1,.54.6v-.78H61Zm-1.11-7.87a1.9,1.9,0,0,0-.49-1.4,1.4,1.4,0,0,0-1-.39,1.29,1.29,0,0,0-1,.47c-.49.52-.52,1.45-.52,3.7s.06,3.19.52,3.71a1.36,1.36,0,0,0,1.93.08,2,2,0,0,0,.49-1.42Z" fill="#fff"/><path id="a8efa83c-13a3-4d2f-b221-17c963117ed1" data-name="Path" d="M65.44,127.25a1.2,1.2,0,1,1,.82-.35A1.16,1.16,0,0,1,65.44,127.25Z" fill="#fff"/><polygon id="b181cdf3-1c08-4e21-8253-fd3bf5aea4e6" data-name="Path" points="70.11 131.81 70.11 118.87 68.07 120.63 68.07 119.31 70.11 117.56 71.23 117.56 71.23 131.82 70.11 131.81" fill="#fff"/><path id="b405059f-4f07-4d87-87e9-4f553204e709" data-name="Shape" d="M77.84,131.27A2.63,2.63,0,0,1,76,132a2.56,2.56,0,0,1-1.8-.7,2.68,2.68,0,0,1-.72-2v-9.14a2.69,2.69,0,0,1,.72-2,2.56,2.56,0,0,1,1.8-.7,2.46,2.46,0,0,1,2.54,2.72v9.14a2.68,2.68,0,0,1-.72,2Zm-.41-11.22c0-1.12-.65-1.66-1.43-1.66s-1.39.54-1.39,1.66v9.26c0,1.12.61,1.66,1.39,1.66s1.43-.54,1.43-1.66Z" fill="#fff"/><path id="a92f69d0-7ff2-4df1-a363-57137c5db04f" data-name="Path" d="M90.1,131.81v-7.65c0-1.12-.62-1.66-1.4-1.66s-1.42.54-1.42,1.66v7.67H86.16v-7.67c0-1.12-.62-1.66-1.4-1.66s-1.42.54-1.42,1.66v7.67H82.22V121.65h1.1v.81a2.28,2.28,0,0,1,.58-.62,2,2,0,0,1,1.16-.35,2.34,2.34,0,0,1,1.9,1.08,2.56,2.56,0,0,1,.7-.73,2.3,2.3,0,0,1,1.22-.35,2.12,2.12,0,0,1,1.72.69,2.66,2.66,0,0,1,.62,2v7.65Z" fill="#fff"/><path id="f6cf3965-a343-407f-a4d6-00946b4039fc" data-name="Shape" d="M97.57,132.11c0,1.7-.18,2.43-.75,3.07a2.72,2.72,0,0,1-3.66.06,2.8,2.8,0,0,1-.7-2.14h1.1a1.91,1.91,0,0,0,.44,1.45,1.24,1.24,0,0,0,1,.38,1.27,1.27,0,0,0,1-.44c.38-.4.48-1.08.48-2.36v-1.3a2.12,2.12,0,0,1-.54.58,1.91,1.91,0,0,1-1.14.34,2,2,0,0,1-1.58-.71c-.62-.71-.78-1.86-.78-4.44s.14-3.73.78-4.43a2.12,2.12,0,0,1,2.74-.38,1.93,1.93,0,0,1,.54.6v-.78h1.1Zm-1.12-7.87a1.84,1.84,0,0,0-.46-1.4,1.38,1.38,0,0,0-1-.39,1.3,1.3,0,0,0-1,.47c-.49.52-.52,1.45-.52,3.7s0,3.19.52,3.71a1.35,1.35,0,0,0,1,.44,1.32,1.32,0,0,0,1-.36,1.9,1.9,0,0,0,.46-1.42Z" fill="#fff"/><polygon id="bae720c6-e1dd-4262-8764-e42cf40e4924" data-name="Path" points="99.55 133.29 98.4 133.29 102.11 116.07 103.25 116.07 99.55 133.29" fill="#fff"/><polygon id="b192fbc5-7aed-4b53-901c-76e04dd7dd2b" data-name="Path" points="105.89 131.81 105.89 118.87 103.85 120.63 103.85 119.31 105.89 117.56 107 117.56 107 131.82 105.89 131.81" fill="#fff"/><path id="baa94dd2-defb-4aab-8ec7-a5cc292d5a07" data-name="Shape" d="M113.62,131.27a2.63,2.63,0,0,1-1.82.7,2.56,2.56,0,0,1-1.8-.7,2.64,2.64,0,0,1-.72-2v-9.14a2.65,2.65,0,0,1,.72-2,2.58,2.58,0,0,1,1.78-.72,2.45,2.45,0,0,1,2.54,2.72v9.16a2.64,2.64,0,0,1-.7,2Zm-.38-11.22c0-1.12-.64-1.66-1.42-1.66s-1.4.54-1.4,1.66v9.26c0,1.12.62,1.66,1.4,1.66s1.42-.54,1.42-1.66Z" fill="#fff"/><path id="b5975f16-bd4a-479b-98fa-0b5c02da3eb8" data-name="Path" d="M125.88,131.81v-7.65c0-1.12-.62-1.66-1.4-1.66s-1.42.54-1.42,1.66v7.67H122v-7.67c0-1.12-.62-1.66-1.4-1.66s-1.42.54-1.42,1.66v7.67H118V121.65h1.1v.81a2.28,2.28,0,0,1,.58-.62,2,2,0,0,1,1.16-.35,2.34,2.34,0,0,1,1.9,1.08,2.56,2.56,0,0,1,.7-.73,2.25,2.25,0,0,1,1.22-.35,2.08,2.08,0,0,1,1.71.69,2.62,2.62,0,0,1,.62,2v7.65Z" fill="#fff"/><path id="b712591e-55b0-4671-9292-f387e30fa0f3" data-name="Shape" d="M133.35,132.11c0,1.7-.18,2.43-.76,3.07a2.72,2.72,0,0,1-3.66.06,2.88,2.88,0,0,1-.7-2.14h1.11a1.91,1.91,0,0,0,.44,1.45,1.38,1.38,0,0,0,2-.06c.38-.4.49-1.08.49-2.36v-1.3a2,2,0,0,1-.55.58,1.9,1.9,0,0,1-1.13.34A2,2,0,0,1,129,131c-.62-.71-.78-1.86-.78-4.44s.14-3.73.78-4.43a2,2,0,0,1,1.59-.72,2,2,0,0,1,1.15.34,1.83,1.83,0,0,1,.54.6v-.78h1.1Zm-1.11-7.87a1.92,1.92,0,0,0-.46-1.4,1.42,1.42,0,0,0-1-.39,1.3,1.3,0,0,0-1,.47c-.46.52-.52,1.45-.52,3.7s.06,3.19.52,3.71a1.37,1.37,0,0,0,1.94.08,2,2,0,0,0,.46-1.42Z" fill="#fff"/><path id="bafc783f-fbaa-4309-95c1-8e7b90cdf002" data-name="Path" d="M137.8,127.25a1.18,1.18,0,0,1-1.09-.72,1.2,1.2,0,0,1,.25-1.29,1.19,1.19,0,0,1,1.28-.25,1.18,1.18,0,0,1-.44,2.26Z" fill="#fff"/><polygon id="b318d360-4672-4280-b6ed-3622a8f47212" data-name="Path" points="142.47 131.81 142.47 118.87 140.43 120.63 140.43 119.31 142.47 117.56 143.58 117.56 143.58 131.82 142.47 131.81" fill="#fff"/><path id="ee231ae9-eda6-4340-bdc5-ab76966e0c32" data-name="Path" d="M150.16,131.17a2.39,2.39,0,0,1-1.82.8,2.59,2.59,0,0,1-1.8-.66,2.66,2.66,0,0,1-.76-2v-.94h1.12v.9c0,1.2.64,1.74,1.45,1.74a1.15,1.15,0,0,0,1-.48c.36-.49.49-1.07.49-3.15s-.16-2.66-.49-3.17a1.17,1.17,0,0,0-1-.52,1.52,1.52,0,0,0-1.45,1.67V126h-1v-8.43h4.9v1h-3.88v5a2.08,2.08,0,0,1,.66-.66,2,2,0,0,1,1.08-.28,2,2,0,0,1,1.62.78c.56.66.72,1.45.72,3.88C151,129.55,150.82,130.43,150.16,131.17Z" fill="#fff"/><path id="a4e5c08c-4053-4f8a-8435-bf1b4d1e1a86" data-name="Path" d="M162.34,131.81v-7.65c0-1.12-.62-1.66-1.4-1.66s-1.42.54-1.42,1.66v7.67h-1.11v-7.67c0-1.12-.62-1.66-1.4-1.66s-1.43.54-1.43,1.66v7.67h-1.11V121.65h1.09v.81a2.32,2.32,0,0,1,.59-.62,2,2,0,0,1,1.16-.35,2.31,2.31,0,0,1,1.89,1.08,2.74,2.74,0,0,1,.71-.73,2.25,2.25,0,0,1,1.21-.35,2.1,2.1,0,0,1,1.72.69,2.66,2.66,0,0,1,.62,2v7.65Z" fill="#fff"/><path id="aee710f9-2ea3-41e1-8153-16df197b7613" data-name="Shape" d="M169.82,132.11c0,1.7-.18,2.43-.76,3.07a2.72,2.72,0,0,1-3.66.06,2.84,2.84,0,0,1-.7-2.14h1.1a1.91,1.91,0,0,0,.44,1.45,1.27,1.27,0,0,0,1,.38,1.25,1.25,0,0,0,1-.44c.38-.4.48-1.08.48-2.36v-1.3a2.09,2.09,0,0,1-.53.58,2.1,2.1,0,0,1-2.72-.37c-.62-.71-.78-1.86-.78-4.44s.14-3.73.78-4.43a2,2,0,0,1,1.57-.72,2,2,0,0,1,1.17.34,1.9,1.9,0,0,1,.53.6v-.78h1.1Zm-1.12-7.87a1.88,1.88,0,0,0-.46-1.4,1.4,1.4,0,0,0-1-.39,1.31,1.31,0,0,0-1,.47c-.48.52-.52,1.45-.52,3.7s.06,3.19.52,3.71a1.38,1.38,0,0,0,1.94.08,2,2,0,0,0,.46-1.42Z" fill="#fff"/><polygon id="b9d02a3d-c04e-4974-9705-a58808502fe2" data-name="Path" points="171.79 133.29 170.65 133.29 174.34 116.07 175.49 116.07 171.79 133.29" fill="#fff"/><polygon id="b3494a4c-5aa6-4a33-b51b-b3812a12a8c7" data-name="Path" points="178.13 131.81 178.13 118.87 176.09 120.63 176.09 119.31 178.13 117.56 179.25 117.56 179.25 131.82 178.13 131.81" fill="#fff"/><path id="bd2b1501-f6ee-4913-83f2-8f70b04134d5" data-name="Shape" d="M185.86,131.27a2.69,2.69,0,0,1-3.62,0,2.68,2.68,0,0,1-.72-2v-9.14a2.69,2.69,0,0,1,.72-2,2.58,2.58,0,0,1,1.8-.7,2.44,2.44,0,0,1,1.9.78,2.46,2.46,0,0,1,.64,1.94v9.14a2.61,2.61,0,0,1-.72,2Zm-.4-11.22c0-1.12-.64-1.66-1.42-1.66s-1.4.54-1.4,1.66v9.26c0,1.12.62,1.66,1.4,1.66s1.42-.54,1.42-1.66Z" fill="#fff"/><path id="aa699f79-c50c-4c47-898c-13ea567f7875" data-name="Path" d="M198.12,131.81v-7.65c0-1.12-.62-1.66-1.4-1.66s-1.42.54-1.42,1.66v7.67h-1.12v-7.67c0-1.12-.62-1.66-1.4-1.66s-1.42.54-1.42,1.66v7.67h-1.12V121.65h1.11v.81a2.24,2.24,0,0,1,.57-.62,2,2,0,0,1,1.16-.35,2.34,2.34,0,0,1,1.9,1.08,2.7,2.7,0,0,1,.7-.73,2.3,2.3,0,0,1,1.22-.35,2.12,2.12,0,0,1,1.72.69,2.66,2.66,0,0,1,.62,2v7.65Z" fill="#fff"/><path id="b57a6515-0c55-4d43-a81e-e6e144b5315d" data-name="Shape" d="M205.6,132.11c0,1.7-.18,2.43-.76,3.07a2.72,2.72,0,0,1-3.66.06,2.84,2.84,0,0,1-.7-2.14h1.1a1.91,1.91,0,0,0,.44,1.45,1.38,1.38,0,0,0,2-.06c.38-.4.48-1.08.48-2.36v-1.3a1.83,1.83,0,0,1-.53.58,1.93,1.93,0,0,1-1.14.34,2,2,0,0,1-1.58-.71c-.62-.71-.78-1.86-.78-4.44s.14-3.73.78-4.43a2,2,0,0,1,1.58-.72,1.86,1.86,0,0,1,1.7.94v-.78h1.1Zm-1.13-7.87a1.85,1.85,0,0,0-.48-1.4,1.35,1.35,0,0,0-1-.38,1.27,1.27,0,0,0-1,.46c-.46.52-.52,1.45-.52,3.7s.06,3.19.52,3.71a1.35,1.35,0,0,0,1,.44,1.33,1.33,0,0,0,1-.36,1.9,1.9,0,0,0,.48-1.42Z" fill="#fff"/><path id="ab5ba2a4-fa95-429e-a23f-061f11a7c6c0" data-name="Path" d="M10,107.31a3.48,3.48,0,0,1-1-2.77V87.3h1.48v17.24a2,2,0,0,0,2.2,2.29v1.32a3.72,3.72,0,0,1-2.68-.84Z" fill="#fff"/><path id="a235bf44-2607-41fa-9923-fb6e2f32c48b" data-name="Shape" d="M19.27,108.15v-1.36a2.6,2.6,0,0,1-.74.9,2.35,2.35,0,0,1-1.62.57,2.69,2.69,0,0,1-2.15-1c-.48-.57-.87-1.81-.87-3.88A5.29,5.29,0,0,1,15,99.56a3.36,3.36,0,0,1,2.65-1h1.54V96.11c0-1.49-.61-2.31-1.86-2.31a1.67,1.67,0,0,0-1.22.48,2.47,2.47,0,0,0-.61,1.89H14a3.77,3.77,0,0,1,1-2.79,3.28,3.28,0,0,1,2.33-.91,3.22,3.22,0,0,1,2.42.86,3.77,3.77,0,0,1,.93,2.81v12Zm-.05-8.32H17.73a2.06,2.06,0,0,0-1.64.65,4.62,4.62,0,0,0-.72,2.87c0,2.3.58,3.57,1.88,3.57s2-1.15,2-2.72Z" fill="#fff"/><path id="ab2f4f7b-cb4e-45d7-b74c-8958fd508beb" data-name="Shape" d="M44.28,108.15v-1.36a2.5,2.5,0,0,1-.73.91,2.31,2.31,0,0,1-1.61.57,2.69,2.69,0,0,1-2.15-1c-.49-.57-.88-1.81-.88-3.88a5.29,5.29,0,0,1,1.14-3.85,3.39,3.39,0,0,1,2.66-1h1.52V96.12c0-1.49-.61-2.31-1.85-2.31a1.63,1.63,0,0,0-1.22.48,2.47,2.47,0,0,0-.61,1.89H39.06a3.77,3.77,0,0,1,1-2.79,3.64,3.64,0,0,1,4.75,0,3.77,3.77,0,0,1,.92,2.81v12Zm-.05-8.32H42.75a2.09,2.09,0,0,0-1.65.65,4.62,4.62,0,0,0-.71,2.87c0,2.3.58,3.57,1.88,3.57s2-1.15,2-2.72Z" fill="#fff"/><path id="b9c6f73f-fa7b-41c5-b3ff-cccbaa9e8469" data-name="Shape" d="M87.56,108.15v-1.36a2.52,2.52,0,0,1-.75.9,2.32,2.32,0,0,1-1.62.57,2.72,2.72,0,0,1-2.15-1c-.48-.57-.87-1.81-.87-3.88a5.29,5.29,0,0,1,1.14-3.85,3.38,3.38,0,0,1,2.65-1H87.5V96.11c0-1.49-.61-2.31-1.86-2.31a1.7,1.7,0,0,0-1.22.48,2.55,2.55,0,0,0-.61,1.89H82.33a3.77,3.77,0,0,1,1-2.79,3.64,3.64,0,0,1,4.75,0A3.77,3.77,0,0,1,89,96.14v12Zm-.06-8.32H86a2.09,2.09,0,0,0-1.65.65,4.62,4.62,0,0,0-.72,2.87c0,2.3.59,3.57,1.89,3.57s1.94-1.15,1.94-2.72Z" fill="#fff"/><path id="b84c3923-129a-4d80-a88a-507f1f664620" data-name="Shape" d="M126.65,108.15v-1.36a2.49,2.49,0,0,1-.74.9,2.33,2.33,0,0,1-1.62.57,2.69,2.69,0,0,1-2.14-1c-.49-.57-.88-1.81-.88-3.88a5.29,5.29,0,0,1,1.14-3.85,3.34,3.34,0,0,1,2.65-1h1.54V96.11c0-1.49-.61-2.31-1.86-2.31a1.7,1.7,0,0,0-1.22.48,2.56,2.56,0,0,0-.61,1.89h-1.48a3.77,3.77,0,0,1,1-2.79,3.63,3.63,0,0,1,4.74,0,3.8,3.8,0,0,1,.93,2.82v12Zm-.05-8.32h-1.48a2.09,2.09,0,0,0-1.65.65,4.62,4.62,0,0,0-.71,2.87c0,2.3.58,3.57,1.88,3.57s2-1.15,2-2.72Z" fill="#fff"/><path id="e64ac1ec-d337-4ded-bece-af110bdf8258" data-name="Shape" d="M195.43,108.15v-1.36a2.49,2.49,0,0,1-.74.9,2.33,2.33,0,0,1-1.62.57,2.72,2.72,0,0,1-2.15-1c-.48-.57-.87-1.81-.87-3.88a5.29,5.29,0,0,1,1.14-3.85,3.38,3.38,0,0,1,2.65-1h1.54V96.11c0-1.49-.61-2.31-1.86-2.31a1.7,1.7,0,0,0-1.22.48,2.55,2.55,0,0,0-.61,1.89h-1.48a3.77,3.77,0,0,1,1-2.79,3.63,3.63,0,0,1,4.74,0,3.77,3.77,0,0,1,.93,2.81v12Zm-.05-8.32H193.9a2.09,2.09,0,0,0-1.65.65,4.62,4.62,0,0,0-.72,2.87c0,2.3.59,3.57,1.89,3.57s2-1.15,2-2.72Z" fill="#fff"/><path id="faaa556f-d547-45f3-9811-55939f3b6c41" data-name="Path" d="M28.3,108.15V96c0-1.49-.82-2.21-1.85-2.21s-1.89.75-1.89,2.21v12.12H23.08V92.68h1.45v1.09A2.87,2.87,0,0,1,25.3,93a2.66,2.66,0,0,1,1.54-.49,2.8,2.8,0,0,1,2.12.93,3.55,3.55,0,0,1,.82,2.66v12.1Z" fill="#fff"/><polygon id="aac1e338-d7f3-44ea-8266-02745985cb03" data-name="Path" points="31.45 108.15 31.45 106.99 36.02 94.02 31.73 94.02 31.73 92.69 37.64 92.69 37.64 93.86 33.09 106.83 37.64 106.83 37.64 108.15 31.45 108.15" fill="#fff"/><path id="afb158af-fa9b-4212-9f92-4d778daccfce" data-name="Shape" d="M54,107.42a2.57,2.57,0,0,1-2.1,1,2.65,2.65,0,0,1-1.54-.43,3.14,3.14,0,0,1-.74-.8v6.41H48.1V92.72h1.45v1.09a2.71,2.71,0,0,1,4.4-.34c.82,1,1,3.63,1,7S54.78,106.46,54,107.42Zm-1.17-13a1.68,1.68,0,0,0-1.3-.61,1.73,1.73,0,0,0-1.27.51,2.39,2.39,0,0,0-.64,1.85v8.51a2.41,2.41,0,0,0,.64,1.86,1.76,1.76,0,0,0,1.27.48,1.65,1.65,0,0,0,1.3-.58c.61-.72.69-3,.69-6s-.08-5.31-.69-6Z" fill="#fff"/><path id="a7e99f40-789b-4e1b-9295-ca9e1b83dad1" data-name="Shape" d="M56.85,89.58V87.67h1.94v1.91Zm.21,18.58V92.69h1.49v15.46Z" fill="#fff"/><path id="bc29471b-0811-4457-99d6-fbab48cce210" data-name="Path" d="M66.21,108.15V96c0-1.49-.82-2.21-1.85-2.21s-1.89.75-1.89,2.21v12.12H61V92.68h1.46v1.09a3,3,0,0,1,.76-.82,2.68,2.68,0,0,1,1.54-.49,2.8,2.8,0,0,1,2.12.93,3.51,3.51,0,0,1,.83,2.66v12.1Z" fill="#fff"/><path id="a28d1a4c-edb7-47c9-96dc-300d8a6484c3" data-name="Shape" d="M71.24,100.92c0,2.76.08,4.73.69,5.44a1.77,1.77,0,0,0,1.35.68,1.81,1.81,0,0,0,1.38-.53,2.72,2.72,0,0,0,.59-1.94H76.7a3.76,3.76,0,0,1-1,2.85,3.25,3.25,0,0,1-2.42.93,3.14,3.14,0,0,1-2.42-1c-.87-1-1.09-3-1.09-6.91s.19-5.92,1.09-6.94a3.07,3.07,0,0,1,2.42-1,3.13,3.13,0,0,1,2.42,1c.91,1,1.09,3.29,1.09,7.46Zm3.35-6.5a1.68,1.68,0,0,0-1.33-.61,1.72,1.72,0,0,0-1.35.69c-.53.63-.64,2.88-.67,5.22h4C75.24,96.78,75.12,95.06,74.59,94.42Z" fill="#fff"/><path id="e9cc7910-ef1c-421f-9025-310a334e27b6" data-name="Path" d="M96.59,108.15V96c0-1.49-.82-2.21-1.85-2.21s-1.89.72-1.89,2.21v12.12H91.37V92.68h1.45v1.09a2.87,2.87,0,0,1,.77-.82,2.66,2.66,0,0,1,1.54-.49,2.78,2.78,0,0,1,2.14,1,3.53,3.53,0,0,1,.82,2.66v12.08Z" fill="#fff"/><path id="af087454-3d7e-4355-998c-a2cbd40aade8" data-name="Shape" d="M105.54,108.15v-1.09a2.56,2.56,0,0,1-2.28,1.31,2.7,2.7,0,0,1-2.1-1c-.82-.93-1-3.6-1-7s.18-6,1-7a2.57,2.57,0,0,1,2.1-1,2.8,2.8,0,0,1,1.54.43,3.62,3.62,0,0,1,.69.82V87.3H107v20.85Zm-.05-12a2.47,2.47,0,0,0-.61-1.85,1.8,1.8,0,0,0-1.3-.51,1.65,1.65,0,0,0-1.27.61c-.61.69-.69,3-.69,6s.08,5.3.69,6a1.64,1.64,0,0,0,1.27.58,1.83,1.83,0,0,0,1.3-.48,2.48,2.48,0,0,0,.61-1.86Z" fill="#fff"/><path id="b1ab034b-f914-4f0c-ba2a-41abf59bdc2d" data-name="Path" d="M118.66,107.34a3.53,3.53,0,0,1-2.57,1,3.36,3.36,0,0,1-2.47-1,4,4,0,0,1-1.06-2.91H114a2.64,2.64,0,0,0,.7,2,1.8,1.8,0,0,0,1.35.56,2.08,2.08,0,0,0,1.54-.61,3.35,3.35,0,0,0,.61-2.31,4,4,0,0,0-.38-1.79,3.48,3.48,0,0,0-1.35-1.17l-1.65-.94a4.58,4.58,0,0,1-1.11-6.79,3.32,3.32,0,0,1,2.42-.93,3.23,3.23,0,0,1,2.42.9,3.9,3.9,0,0,1,1,2.91h-1.48a2.43,2.43,0,0,0-.59-1.94,1.75,1.75,0,0,0-1.32-.53,1.89,1.89,0,0,0-1.41.51,2.91,2.91,0,0,0-.58,1.94,3.06,3.06,0,0,0,1.51,2.8l1.67,1a4.69,4.69,0,0,1,1.83,1.59,5.38,5.38,0,0,1,.53,2.46A4.29,4.29,0,0,1,118.66,107.34Z" fill="#fff"/><path id="a4711165-0b95-4cdd-b4f3-19582dbaccd2" data-name="Path" d="M140.91,108.15V96c0-1.49-.82-2.21-1.85-2.21s-1.89.72-1.89,2.21v12.12h-1.48V96c0-1.49-.82-2.21-1.86-2.21S132,94.54,132,96v12.12h-1.49V92.68h1.46v1.09a2.87,2.87,0,0,1,.77-.82,2.63,2.63,0,0,1,1.53-.49,3.16,3.16,0,0,1,2.53,1.46,3.4,3.4,0,0,1,.92-1,3,3,0,0,1,1.62-.49,2.85,2.85,0,0,1,2.28.93,3.55,3.55,0,0,1,.82,2.66v12.1Z" fill="#fff"/><path id="a9593a35-f344-4ab2-9315-c0d409e5a004" data-name="Shape" d="M144.56,89.58V87.67h1.91v1.91Zm.21,18.58V92.69h1.49v15.46Z" fill="#fff"/><path id="ac24e177-e978-4dc8-be21-eec7c49ddf4a" data-name="Shape" d="M153.72,108.15v-1.09a2.45,2.45,0,0,1-.74.83,2.58,2.58,0,0,1-1.54.48,2.67,2.67,0,0,1-2.09-1c-.83-.93-1-3.6-1-7s.18-6,1-7a2.54,2.54,0,0,1,2.09-1,2.78,2.78,0,0,1,1.54.43,3.65,3.65,0,0,1,.72.8V87.3h1.48v20.85Zm0-12a2.47,2.47,0,0,0-.61-1.85,1.81,1.81,0,0,0-1.3-.51,1.67,1.67,0,0,0-1.28.61c-.61.69-.68,3-.68,6s.07,5.3.68,6a1.66,1.66,0,0,0,1.28.58,1.84,1.84,0,0,0,1.3-.48,2.48,2.48,0,0,0,.61-1.86Z" fill="#fff"/><path id="bde5ec4d-7340-44d8-a6b0-2d07fdda5424" data-name="Path" d="M170.52,93.89a2.39,2.39,0,0,0-1.89.72,2.45,2.45,0,0,0-.71,1.9v11.64h-1.49V92.68h1.46v1.46a3,3,0,0,1,.65-.85,3.31,3.31,0,0,1,2.31-.8V93.9Z" fill="#fff"/><path id="b27a1942-4ef2-41cb-acec-11374a6acfe4" data-name="Shape" d="M178.34,107.42a2.88,2.88,0,0,1-3.64.53,3.14,3.14,0,0,1-.74-.8v6.41h-1.49V92.7h1.45v1.09a2.73,2.73,0,0,1,4.41-.33c.82,1,1,3.63,1,7S179.16,106.46,178.34,107.42Zm-1.17-13a1.68,1.68,0,0,0-1.3-.61,1.73,1.73,0,0,0-1.27.51,2.34,2.34,0,0,0-.64,1.85v8.51a2.37,2.37,0,0,0,.64,1.86,1.76,1.76,0,0,0,1.27.48,1.67,1.67,0,0,0,1.3-.58c.61-.72.69-3,.69-6s-.08-5.31-.69-6Z" fill="#fff"/><path id="bf4baa02-144d-40b8-84d0-fe4a1a7700e1" data-name="Path" d="M186.7,108.15V96c0-1.49-.82-2.21-1.86-2.21S183,94.54,183,96v12.12h-1.49V87.3H183v6.45a2.64,2.64,0,0,1,2.28-1.27,2.82,2.82,0,0,1,2.13.93,3.53,3.53,0,0,1,.82,2.66v12.08Z" fill="#fff"/><path id="f28c1933-9756-478d-9a8f-e12f91b3e44e" data-name="Path" d="M204.47,108.15V96c0-1.49-.82-2.21-1.86-2.21s-1.88.75-1.88,2.21v12.12h-1.49V92.68h1.45v1.09a3,3,0,0,1,.77-.82,2.66,2.66,0,0,1,1.54-.49,2.8,2.8,0,0,1,2.12.93,3.55,3.55,0,0,1,.83,2.66v12.1Z" fill="#fff"/><path id="b607a42e-5d61-4494-84de-00a1aea60141" data-name="Shape" d="M3.5,108.37A3,3,0,0,1,1,107.31c-.83-1-1-3.68-1-6.87s.18-5.87,1-6.87A3,3,0,0,1,3.5,92.48,3,3,0,0,1,6,93.57c.82,1,1,3.68,1,6.87s-.19,5.88-1,6.87a3,3,0,0,1-2.49,1.06Zm0-1.3a1.71,1.71,0,0,0,1.34-.61c.61-.75.69-3.11.69-6s-.08-5.29-.69-6a1.75,1.75,0,0,0-1.33-.62,1.73,1.73,0,0,0-1.32.62c-.61.75-.69,3.13-.69,6s.06,5.29.67,6a1.71,1.71,0,0,0,1.33.61Z" fill="#fff"/><path id="f19ece0d-f6ef-4ad5-9234-6b7e77cb7a50" data-name="Shape" d="M160.81,108.37a3,3,0,0,1-2.49-1.06c-.82-1-1-3.68-1-6.87s.19-5.89,1-6.87a3.37,3.37,0,0,1,5,0c.83,1,1,3.68,1,6.87s-.18,5.88-1,6.87a3,3,0,0,1-2.49,1.06Zm0-1.3a1.71,1.71,0,0,0,1.33-.61c.61-.75.69-3.11.69-6s-.08-5.29-.69-6a1.74,1.74,0,0,0-2.66,0c-.61.75-.68,3.13-.68,6s.07,5.27.68,6a1.71,1.71,0,0,0,1.33.61Z" fill="#fff"/><path id="b60b45a0-ee74-45fb-8d69-075efebb96c1" data-name="Path" d="M50,154.88v-.94l3.38-7.82a7.26,7.26,0,0,0,.68-3c0-1.12-.62-1.67-1.4-1.67s-1.42.55-1.42,1.67v1h-1.1v-1a2.61,2.61,0,0,1,.72-2,2.71,2.71,0,0,1,1.82-.7,2.58,2.58,0,0,1,1.78.68,2.71,2.71,0,0,1,.74,2,8.83,8.83,0,0,1-.83,3.31l-3.17,7.39h4v1Z" fill="#fff"/><path id="f6030db8-46a0-4c5f-8e1d-85d5a0cd0b20" data-name="Shape" d="M60.79,154.33A2.69,2.69,0,0,1,59,155a2.62,2.62,0,0,1-1.8-.71,2.68,2.68,0,0,1-.72-2v-9.14a2.69,2.69,0,0,1,.72-2,2.66,2.66,0,0,1,1.8-.7,2.46,2.46,0,0,1,2.54,2.72v9.14a2.64,2.64,0,0,1-.72,2Zm-.4-11.21c0-1.12-.64-1.67-1.42-1.67s-1.4.55-1.4,1.67v9.25c0,1.12.62,1.66,1.4,1.66s1.42-.54,1.42-1.66Z" fill="#fff"/><path id="a18cdf54-77d1-4759-8ef9-c00b87840925" data-name="Path" d="M73.07,154.88V147.2c0-1.12-.62-1.66-1.4-1.66s-1.41.54-1.41,1.66v7.68H69.14V147.2c0-1.12-.62-1.66-1.4-1.66a1.45,1.45,0,0,0-1.44,1.66v7.68H65.18V144.69H66.3v.81a1.91,1.91,0,0,1,.58-.62,2,2,0,0,1,1.16-.37,2.37,2.37,0,0,1,1.9,1.08,2.49,2.49,0,0,1,.7-.71,2.19,2.19,0,0,1,1.22-.37,2.1,2.1,0,0,1,1.71.71,2.62,2.62,0,0,1,.62,2v7.65Z" fill="#fff"/><path id="a7ee75c8-1f1f-4c4f-8701-936a4e428fdb" data-name="Shape" d="M80.52,155.2c0,1.7-.18,2.42-.76,3.06a2.7,2.7,0,0,1-3.65.06,2.84,2.84,0,0,1-.7-2.14h1.1a1.91,1.91,0,0,0,.44,1.45,1.33,1.33,0,0,0,1,.38,1.28,1.28,0,0,0,1-.44c.37-.4.48-1.08.48-2.36V153.9a1.76,1.76,0,0,1-.54.58,1.79,1.79,0,0,1-1.14.34,2,2,0,0,1-1.58-.7c-.62-.72-.77-1.86-.77-4.44s.14-3.73.77-4.43a2,2,0,0,1,1.58-.72,1.86,1.86,0,0,1,1.16.34,1.94,1.94,0,0,1,.54.6v-.78h1.1Zm-1.11-7.88a1.9,1.9,0,0,0-.49-1.4,1.39,1.39,0,0,0-1-.38,1.25,1.25,0,0,0-1,.46c-.46.52-.52,1.46-.52,3.71s.06,3.18.52,3.7a1.2,1.2,0,0,0,1,.44,1.22,1.22,0,0,0,1-.36,2,2,0,0,0,.49-1.42Z" fill="#fff"/><polygon id="be4069e4-3e4a-422b-81cc-bc7a124c2ad2" data-name="Path" points="82.5 156.36 81.36 156.36 85.05 139.13 86.19 139.13 82.5 156.36" fill="#fff"/><polygon id="e84509bf-c7fa-437c-a627-3dd8a8662105" data-name="Path" points="88.84 154.88 88.84 141.93 86.8 143.7 86.8 142.35 88.84 140.61 89.95 140.61 89.95 154.88 88.84 154.88" fill="#fff"/><path id="f3d7777d-abef-493b-982f-6a9d41229f28" data-name="Shape" d="M96.57,154.33a2.69,2.69,0,0,1-1.82.71,2.47,2.47,0,0,1-2.52-2.73v-9.14a2.45,2.45,0,0,1,2.52-2.72,2.44,2.44,0,0,1,2.54,2.72v9.14a2.68,2.68,0,0,1-.72,2Zm-.4-11.21c0-1.12-.64-1.67-1.42-1.67s-1.4.55-1.4,1.67v9.25c0,1.12.62,1.66,1.4,1.66s1.42-.54,1.42-1.66Z" fill="#fff"/><path id="adc52c27-5237-4d34-b037-fb0221c2b4a4" data-name="Path" d="M108.83,154.88V147.2c0-1.12-.62-1.66-1.4-1.66s-1.42.54-1.42,1.66v7.68h-1.12V147.2c0-1.12-.62-1.66-1.4-1.66s-1.42.54-1.42,1.66v7.68H101V144.69h1.1v.81a2,2,0,0,1,.58-.62,2,2,0,0,1,1.16-.37,2.37,2.37,0,0,1,1.9,1.08,2.63,2.63,0,0,1,.7-.71,2.21,2.21,0,0,1,1.22-.37,2.13,2.13,0,0,1,1.72.71,2.62,2.62,0,0,1,.62,2v7.65Z" fill="#fff"/><path id="fd0a9a96-d48e-44e7-b8b7-f05309417f80" data-name="Shape" d="M116.3,155.2c0,1.7-.17,2.42-.76,3.06a2.7,2.7,0,0,1-3.65.06,2.85,2.85,0,0,1-.71-2.14h1.09a1.91,1.91,0,0,0,.44,1.45,1.31,1.31,0,0,0,1,.38,1.24,1.24,0,0,0,1-.44c.39-.4.49-1.08.49-2.36V153.9a1.89,1.89,0,0,1-1.68.92,1.92,1.92,0,0,1-1.58-.7c-.62-.72-.78-1.86-.78-4.44s.14-3.73.78-4.43a2,2,0,0,1,1.58-.72,1.84,1.84,0,0,1,1.7.94v-.78h1.1Zm-1.13-7.9a1.84,1.84,0,0,0-.46-1.4,1.39,1.39,0,0,0-1-.38,1.23,1.23,0,0,0-1,.46c-.46.52-.53,1.46-.53,3.71s.07,3.18.53,3.7a1.2,1.2,0,0,0,1,.44,1.29,1.29,0,0,0,1-.36,1.92,1.92,0,0,0,.46-1.42Z" fill="#fff"/><path id="a6c4e916-c922-4996-8a54-4b2b5355f04b" data-name="Path" d="M122.54,154.23a2.68,2.68,0,0,1-.76-2.08v-6.59h-1.24v-.88h1.24v-3h1.13v3h1.74v.88h-1.74v6.59c0,1.22.64,1.72,1.82,1.72v1A3,3,0,0,1,122.54,154.23Z" fill="#fff"/><path id="a9576496-321f-46f3-9b4f-e653cc0e982e" data-name="Shape" d="M129.36,154.88V154a2,2,0,0,1-.57.67,1.84,1.84,0,0,1-1.22.41,2.15,2.15,0,0,1-1.61-.69,3.4,3.4,0,0,1-.66-2.3,3,3,0,0,1,.86-2.3,2.65,2.65,0,0,1,2-.68h1.16v-1.83c0-1.12-.49-1.74-1.4-1.74a1.26,1.26,0,0,0-.92.38,1.88,1.88,0,0,0-.46,1.42h-1.12a2.81,2.81,0,0,1,.74-2.1,2.76,2.76,0,0,1,3.58,0,2.83,2.83,0,0,1,.69,2.12v7.6Zm0-4.93h-1.13a1.65,1.65,0,0,0-1.23.44,2.38,2.38,0,0,0-.54,1.64c0,1.22.44,2,1.42,2s1.48-.78,1.48-1.84Z" fill="#fff"/><path id="f8ecd3e3-ead2-4407-8356-bd6ff431add8" data-name="Shape" d="M136.28,154.31a2.05,2.05,0,0,1-1.6.73,1.88,1.88,0,0,1-1.69-.95v.81h-1.11V140.61H133v4.85a2.45,2.45,0,0,1,.56-.6,2,2,0,0,1,1.14-.34,2,2,0,0,1,1.6.72c.64.73.76,1.94.76,4.55S137,153.59,136.28,154.31ZM135.4,146a1.28,1.28,0,0,0-1-.46,1.35,1.35,0,0,0-1,.38,1.78,1.78,0,0,0-.48,1.4v4.95a1.75,1.75,0,0,0,.48,1.4,1.35,1.35,0,0,0,1,.38,1.26,1.26,0,0,0,1-.44c.46-.54.52-1.52.52-3.8S135.86,146.5,135.4,146Z" fill="#fff"/><path id="f98f1c2d-950a-4a8b-a188-382aac176605" data-name="Path" d="M139,154.23a2.61,2.61,0,0,1-.76-2.08V140.61h1.12v11.54a1.51,1.51,0,0,0,1.66,1.72v1a2.8,2.8,0,0,1-2-.65Z" fill="#fff"/><path id="b44527b8-94b1-486a-80cb-0c2a844a6899" data-name="Shape" d="M142.63,150c0,2.08.06,3.1.52,3.62a1.32,1.32,0,0,0,1,.49,1.42,1.42,0,0,0,1-.4,2.07,2.07,0,0,0,.44-1.46h1.1a2.79,2.79,0,0,1-.74,2.15,2.46,2.46,0,0,1-1.84.7,2.41,2.41,0,0,1-1.84-.74c-.66-.72-.82-2.09-.82-4.51s.14-3.78.82-4.53a2.62,2.62,0,0,1,3.64,0c.68.75.82,2.09.82,4.69Zm2.54-4a1.23,1.23,0,0,0-1-.46,1.29,1.29,0,0,0-1,.46c-.4.46-.49,1.3-.49,3.07h3C145.66,147.28,145.55,146.47,145.17,146Z" fill="#fff"/><path id="ac8ee202-b6b5-4947-b502-073ab6509aa3" data-name="Path" d="M149.24,154.23a2.71,2.71,0,0,1-.76-2.08v-6.59h-1.23v-.88h1.23v-3h1.13v3h1.73v.88h-1.73v6.59c0,1.22.64,1.72,1.81,1.72v1A3,3,0,0,1,149.24,154.23Z" fill="#fff"/><path id="e6fab965-1f02-4ae9-9181-24041594e062" data-name="Path" d="M156.53,154.26a2.68,2.68,0,0,1-1.93.78,2.52,2.52,0,0,1-1.86-.73,3,3,0,0,1-.8-2.2h1.12a1.93,1.93,0,0,0,.52,1.5,1.43,1.43,0,0,0,1,.42,1.59,1.59,0,0,0,1.16-.48,1.77,1.77,0,0,0,.46-1.26,2.1,2.1,0,0,0-.28-1.1,2.74,2.74,0,0,0-1-.89l-1.28-.7a3.54,3.54,0,0,1-1.32-1.2,2.82,2.82,0,0,1,.52-3.2,2.51,2.51,0,0,1,1.81-.71,2.45,2.45,0,0,1,1.82.69,2.9,2.9,0,0,1,.74,2.2H156.1a2,2,0,0,0-.44-1.49,1.3,1.3,0,0,0-1-.39,1.41,1.41,0,0,0-1.05.38,1.64,1.64,0,0,0-.44,1.2,1.8,1.8,0,0,0,.2.88,2.4,2.4,0,0,0,.94.76l1.25.72a3.49,3.49,0,0,1,1.38,1.2,3.14,3.14,0,0,1,.41,1.61A2.81,2.81,0,0,1,156.53,154.26Z" fill="#fff"/></g></g></g></svg>